<?xml version="1.0" encoding="utf-8" standalone="no"?>
<!DOCTYPE svg PUBLIC "-//W3C//DTD SVG 1.1//EN"
  "http://www.w3.org/Graphics/SVG/1.1/DTD/svg11.dtd">
<svg xmlns:xlink="http://www.w3.org/1999/xlink" width="1109.8075pt" height="455.348272pt" viewBox="0 0 1109.8075 455.348272" xmlns="http://www.w3.org/2000/svg" version="1.1">
 <metadata>
  <rdf:RDF xmlns:dc="http://purl.org/dc/elements/1.1/" xmlns:cc="http://creativecommons.org/ns#" xmlns:rdf="http://www.w3.org/1999/02/22-rdf-syntax-ns#">
   <cc:Work>
    <dc:type rdf:resource="http://purl.org/dc/dcmitype/StillImage"/>
    <dc:date>2024-01-23T18:51:38.511125</dc:date>
    <dc:format>image/svg+xml</dc:format>
    <dc:creator>
     <cc:Agent>
      <dc:title>Matplotlib v3.8.2, https://matplotlib.org/</dc:title>
     </cc:Agent>
    </dc:creator>
   </cc:Work>
  </rdf:RDF>
 </metadata>
 <defs>
  <style type="text/css">*{stroke-linejoin: round; stroke-linecap: butt}</style>
 </defs>
 <g id="figure_1">
  <g id="patch_1">
   <path d="M 0 455.348272 
L 1109.8075 455.348272 
L 1109.8075 0 
L 0 0 
z
" style="fill: #ffffff"/>
  </g>
  <g id="axes_1">
   <g id="patch_2">
    <path d="M 533.4475 153.952941 
L 1091.4475 153.952941 
L 1091.4475 56.117647 
L 533.4475 56.117647 
z
" style="fill: #ffffff"/>
   </g>
   <g id="matplotlib.axis_1">
    <g id="xtick_1">
     <g id="line2d_1">
      <path d="M 589.2475 153.952941 
L 589.2475 56.117647 
" clip-path="url(#p3637548e5b)" style="fill: none; stroke: #b0b0b0; stroke-width: 0.8; stroke-linecap: square"/>
     </g>
     <g id="line2d_2">
      <defs>
       <path id="mf7f3c87ea8" d="M 0 0 
L 0 3.5 
" style="stroke: #000000; stroke-width: 0.8"/>
      </defs>
      <g>
       <use xlink:href="#mf7f3c87ea8" x="589.2475" y="153.952941" style="stroke: #000000; stroke-width: 0.8"/>
      </g>
     </g>
    </g>
    <g id="xtick_2">
     <g id="line2d_3">
      <path d="M 700.8475 153.952941 
L 700.8475 56.117647 
" clip-path="url(#p3637548e5b)" style="fill: none; stroke: #b0b0b0; stroke-width: 0.8; stroke-linecap: square"/>
     </g>
     <g id="line2d_4">
      <g>
       <use xlink:href="#mf7f3c87ea8" x="700.8475" y="153.952941" style="stroke: #000000; stroke-width: 0.8"/>
      </g>
     </g>
    </g>
    <g id="xtick_3">
     <g id="line2d_5">
      <path d="M 812.4475 153.952941 
L 812.4475 56.117647 
" clip-path="url(#p3637548e5b)" style="fill: none; stroke: #b0b0b0; stroke-width: 0.8; stroke-linecap: square"/>
     </g>
     <g id="line2d_6">
      <g>
       <use xlink:href="#mf7f3c87ea8" x="812.4475" y="153.952941" style="stroke: #000000; stroke-width: 0.8"/>
      </g>
     </g>
    </g>
    <g id="xtick_4">
     <g id="line2d_7">
      <path d="M 924.0475 153.952941 
L 924.0475 56.117647 
" clip-path="url(#p3637548e5b)" style="fill: none; stroke: #b0b0b0; stroke-width: 0.8; stroke-linecap: square"/>
     </g>
     <g id="line2d_8">
      <g>
       <use xlink:href="#mf7f3c87ea8" x="924.0475" y="153.952941" style="stroke: #000000; stroke-width: 0.8"/>
      </g>
     </g>
    </g>
    <g id="xtick_5">
     <g id="line2d_9">
      <path d="M 1035.6475 153.952941 
L 1035.6475 56.117647 
" clip-path="url(#p3637548e5b)" style="fill: none; stroke: #b0b0b0; stroke-width: 0.8; stroke-linecap: square"/>
     </g>
     <g id="line2d_10">
      <g>
       <use xlink:href="#mf7f3c87ea8" x="1035.6475" y="153.952941" style="stroke: #000000; stroke-width: 0.8"/>
      </g>
     </g>
    </g>
   </g>
   <g id="matplotlib.axis_2">
    <g id="ytick_1">
     <g id="line2d_11">
      <path d="M 533.4475 131.489652 
L 1091.4475 131.489652 
" clip-path="url(#p3637548e5b)" style="fill: none; stroke: #b0b0b0; stroke-width: 0.8; stroke-linecap: square"/>
     </g>
     <g id="line2d_12">
      <defs>
       <path id="mcd72558d6d" d="M 0 0 
L -3.5 0 
" style="stroke: #000000; stroke-width: 0.8"/>
      </defs>
      <g>
       <use xlink:href="#mcd72558d6d" x="533.4475" y="131.489652" style="stroke: #000000; stroke-width: 0.8"/>
      </g>
     </g>
     <g id="text_1">
      <!-- 0.00 -->
      <g transform="translate(470.783437 140.987699) scale(0.25 -0.25)">
       <defs>
        <path id="DejaVuSans-30" d="M 2034 4250 
Q 1547 4250 1301 3770 
Q 1056 3291 1056 2328 
Q 1056 1369 1301 889 
Q 1547 409 2034 409 
Q 2525 409 2770 889 
Q 3016 1369 3016 2328 
Q 3016 3291 2770 3770 
Q 2525 4250 2034 4250 
z
M 2034 4750 
Q 2819 4750 3233 4129 
Q 3647 3509 3647 2328 
Q 3647 1150 3233 529 
Q 2819 -91 2034 -91 
Q 1250 -91 836 529 
Q 422 1150 422 2328 
Q 422 3509 836 4129 
Q 1250 4750 2034 4750 
z
" transform="scale(0.015625)"/>
        <path id="DejaVuSans-2e" d="M 684 794 
L 1344 794 
L 1344 0 
L 684 0 
L 684 794 
z
" transform="scale(0.015625)"/>
       </defs>
       <use xlink:href="#DejaVuSans-30"/>
       <use xlink:href="#DejaVuSans-2e" x="63.623047"/>
       <use xlink:href="#DejaVuSans-30" x="95.410156"/>
       <use xlink:href="#DejaVuSans-30" x="159.033203"/>
      </g>
     </g>
    </g>
    <g id="ytick_2">
     <g id="line2d_13">
      <path d="M 533.4475 59.36458 
L 1091.4475 59.36458 
" clip-path="url(#p3637548e5b)" style="fill: none; stroke: #b0b0b0; stroke-width: 0.8; stroke-linecap: square"/>
     </g>
     <g id="line2d_14">
      <g>
       <use xlink:href="#mcd72558d6d" x="533.4475" y="59.36458" style="stroke: #000000; stroke-width: 0.8"/>
      </g>
     </g>
     <g id="text_2">
      <!-- 0.25 -->
      <g transform="translate(470.783437 68.862627) scale(0.25 -0.25)">
       <defs>
        <path id="DejaVuSans-32" d="M 1228 531 
L 3431 531 
L 3431 0 
L 469 0 
L 469 531 
Q 828 903 1448 1529 
Q 2069 2156 2228 2338 
Q 2531 2678 2651 2914 
Q 2772 3150 2772 3378 
Q 2772 3750 2511 3984 
Q 2250 4219 1831 4219 
Q 1534 4219 1204 4116 
Q 875 4013 500 3803 
L 500 4441 
Q 881 4594 1212 4672 
Q 1544 4750 1819 4750 
Q 2544 4750 2975 4387 
Q 3406 4025 3406 3419 
Q 3406 3131 3298 2873 
Q 3191 2616 2906 2266 
Q 2828 2175 2409 1742 
Q 1991 1309 1228 531 
z
" transform="scale(0.015625)"/>
        <path id="DejaVuSans-35" d="M 691 4666 
L 3169 4666 
L 3169 4134 
L 1269 4134 
L 1269 2991 
Q 1406 3038 1543 3061 
Q 1681 3084 1819 3084 
Q 2600 3084 3056 2656 
Q 3513 2228 3513 1497 
Q 3513 744 3044 326 
Q 2575 -91 1722 -91 
Q 1428 -91 1123 -41 
Q 819 9 494 109 
L 494 744 
Q 775 591 1075 516 
Q 1375 441 1709 441 
Q 2250 441 2565 725 
Q 2881 1009 2881 1497 
Q 2881 1984 2565 2268 
Q 2250 2553 1709 2553 
Q 1456 2553 1204 2497 
Q 953 2441 691 2322 
L 691 4666 
z
" transform="scale(0.015625)"/>
       </defs>
       <use xlink:href="#DejaVuSans-30"/>
       <use xlink:href="#DejaVuSans-2e" x="63.623047"/>
       <use xlink:href="#DejaVuSans-32" x="95.410156"/>
       <use xlink:href="#DejaVuSans-35" x="159.033203"/>
      </g>
     </g>
    </g>
    <g id="text_3">
     <!-- Secondary Y-axis Label -->
     <g style="fill: #0000ff" transform="translate(450.584219 248.611466) rotate(-90) scale(0.25 -0.25)">
      <defs>
       <path id="DejaVuSans-53" d="M 3425 4513 
L 3425 3897 
Q 3066 4069 2747 4153 
Q 2428 4238 2131 4238 
Q 1616 4238 1336 4038 
Q 1056 3838 1056 3469 
Q 1056 3159 1242 3001 
Q 1428 2844 1947 2747 
L 2328 2669 
Q 3034 2534 3370 2195 
Q 3706 1856 3706 1288 
Q 3706 609 3251 259 
Q 2797 -91 1919 -91 
Q 1588 -91 1214 -16 
Q 841 59 441 206 
L 441 856 
Q 825 641 1194 531 
Q 1563 422 1919 422 
Q 2459 422 2753 634 
Q 3047 847 3047 1241 
Q 3047 1584 2836 1778 
Q 2625 1972 2144 2069 
L 1759 2144 
Q 1053 2284 737 2584 
Q 422 2884 422 3419 
Q 422 4038 858 4394 
Q 1294 4750 2059 4750 
Q 2388 4750 2728 4690 
Q 3069 4631 3425 4513 
z
" transform="scale(0.015625)"/>
       <path id="DejaVuSans-65" d="M 3597 1894 
L 3597 1613 
L 953 1613 
Q 991 1019 1311 708 
Q 1631 397 2203 397 
Q 2534 397 2845 478 
Q 3156 559 3463 722 
L 3463 178 
Q 3153 47 2828 -22 
Q 2503 -91 2169 -91 
Q 1331 -91 842 396 
Q 353 884 353 1716 
Q 353 2575 817 3079 
Q 1281 3584 2069 3584 
Q 2775 3584 3186 3129 
Q 3597 2675 3597 1894 
z
M 3022 2063 
Q 3016 2534 2758 2815 
Q 2500 3097 2075 3097 
Q 1594 3097 1305 2825 
Q 1016 2553 972 2059 
L 3022 2063 
z
" transform="scale(0.015625)"/>
       <path id="DejaVuSans-63" d="M 3122 3366 
L 3122 2828 
Q 2878 2963 2633 3030 
Q 2388 3097 2138 3097 
Q 1578 3097 1268 2742 
Q 959 2388 959 1747 
Q 959 1106 1268 751 
Q 1578 397 2138 397 
Q 2388 397 2633 464 
Q 2878 531 3122 666 
L 3122 134 
Q 2881 22 2623 -34 
Q 2366 -91 2075 -91 
Q 1284 -91 818 406 
Q 353 903 353 1747 
Q 353 2603 823 3093 
Q 1294 3584 2113 3584 
Q 2378 3584 2631 3529 
Q 2884 3475 3122 3366 
z
" transform="scale(0.015625)"/>
       <path id="DejaVuSans-6f" d="M 1959 3097 
Q 1497 3097 1228 2736 
Q 959 2375 959 1747 
Q 959 1119 1226 758 
Q 1494 397 1959 397 
Q 2419 397 2687 759 
Q 2956 1122 2956 1747 
Q 2956 2369 2687 2733 
Q 2419 3097 1959 3097 
z
M 1959 3584 
Q 2709 3584 3137 3096 
Q 3566 2609 3566 1747 
Q 3566 888 3137 398 
Q 2709 -91 1959 -91 
Q 1206 -91 779 398 
Q 353 888 353 1747 
Q 353 2609 779 3096 
Q 1206 3584 1959 3584 
z
" transform="scale(0.015625)"/>
       <path id="DejaVuSans-6e" d="M 3513 2113 
L 3513 0 
L 2938 0 
L 2938 2094 
Q 2938 2591 2744 2837 
Q 2550 3084 2163 3084 
Q 1697 3084 1428 2787 
Q 1159 2491 1159 1978 
L 1159 0 
L 581 0 
L 581 3500 
L 1159 3500 
L 1159 2956 
Q 1366 3272 1645 3428 
Q 1925 3584 2291 3584 
Q 2894 3584 3203 3211 
Q 3513 2838 3513 2113 
z
" transform="scale(0.015625)"/>
       <path id="DejaVuSans-64" d="M 2906 2969 
L 2906 4863 
L 3481 4863 
L 3481 0 
L 2906 0 
L 2906 525 
Q 2725 213 2448 61 
Q 2172 -91 1784 -91 
Q 1150 -91 751 415 
Q 353 922 353 1747 
Q 353 2572 751 3078 
Q 1150 3584 1784 3584 
Q 2172 3584 2448 3432 
Q 2725 3281 2906 2969 
z
M 947 1747 
Q 947 1113 1208 752 
Q 1469 391 1925 391 
Q 2381 391 2643 752 
Q 2906 1113 2906 1747 
Q 2906 2381 2643 2742 
Q 2381 3103 1925 3103 
Q 1469 3103 1208 2742 
Q 947 2381 947 1747 
z
" transform="scale(0.015625)"/>
       <path id="DejaVuSans-61" d="M 2194 1759 
Q 1497 1759 1228 1600 
Q 959 1441 959 1056 
Q 959 750 1161 570 
Q 1363 391 1709 391 
Q 2188 391 2477 730 
Q 2766 1069 2766 1631 
L 2766 1759 
L 2194 1759 
z
M 3341 1997 
L 3341 0 
L 2766 0 
L 2766 531 
Q 2569 213 2275 61 
Q 1981 -91 1556 -91 
Q 1019 -91 701 211 
Q 384 513 384 1019 
Q 384 1609 779 1909 
Q 1175 2209 1959 2209 
L 2766 2209 
L 2766 2266 
Q 2766 2663 2505 2880 
Q 2244 3097 1772 3097 
Q 1472 3097 1187 3025 
Q 903 2953 641 2809 
L 641 3341 
Q 956 3463 1253 3523 
Q 1550 3584 1831 3584 
Q 2591 3584 2966 3190 
Q 3341 2797 3341 1997 
z
" transform="scale(0.015625)"/>
       <path id="DejaVuSans-72" d="M 2631 2963 
Q 2534 3019 2420 3045 
Q 2306 3072 2169 3072 
Q 1681 3072 1420 2755 
Q 1159 2438 1159 1844 
L 1159 0 
L 581 0 
L 581 3500 
L 1159 3500 
L 1159 2956 
Q 1341 3275 1631 3429 
Q 1922 3584 2338 3584 
Q 2397 3584 2469 3576 
Q 2541 3569 2628 3553 
L 2631 2963 
z
" transform="scale(0.015625)"/>
       <path id="DejaVuSans-79" d="M 2059 -325 
Q 1816 -950 1584 -1140 
Q 1353 -1331 966 -1331 
L 506 -1331 
L 506 -850 
L 844 -850 
Q 1081 -850 1212 -737 
Q 1344 -625 1503 -206 
L 1606 56 
L 191 3500 
L 800 3500 
L 1894 763 
L 2988 3500 
L 3597 3500 
L 2059 -325 
z
" transform="scale(0.015625)"/>
       <path id="DejaVuSans-20" transform="scale(0.015625)"/>
       <path id="DejaVuSans-59" d="M -13 4666 
L 666 4666 
L 1959 2747 
L 3244 4666 
L 3922 4666 
L 2272 2222 
L 2272 0 
L 1638 0 
L 1638 2222 
L -13 4666 
z
" transform="scale(0.015625)"/>
       <path id="DejaVuSans-2d" d="M 313 2009 
L 1997 2009 
L 1997 1497 
L 313 1497 
L 313 2009 
z
" transform="scale(0.015625)"/>
       <path id="DejaVuSans-78" d="M 3513 3500 
L 2247 1797 
L 3578 0 
L 2900 0 
L 1881 1375 
L 863 0 
L 184 0 
L 1544 1831 
L 300 3500 
L 978 3500 
L 1906 2253 
L 2834 3500 
L 3513 3500 
z
" transform="scale(0.015625)"/>
       <path id="DejaVuSans-69" d="M 603 3500 
L 1178 3500 
L 1178 0 
L 603 0 
L 603 3500 
z
M 603 4863 
L 1178 4863 
L 1178 4134 
L 603 4134 
L 603 4863 
z
" transform="scale(0.015625)"/>
       <path id="DejaVuSans-73" d="M 2834 3397 
L 2834 2853 
Q 2591 2978 2328 3040 
Q 2066 3103 1784 3103 
Q 1356 3103 1142 2972 
Q 928 2841 928 2578 
Q 928 2378 1081 2264 
Q 1234 2150 1697 2047 
L 1894 2003 
Q 2506 1872 2764 1633 
Q 3022 1394 3022 966 
Q 3022 478 2636 193 
Q 2250 -91 1575 -91 
Q 1294 -91 989 -36 
Q 684 19 347 128 
L 347 722 
Q 666 556 975 473 
Q 1284 391 1588 391 
Q 1994 391 2212 530 
Q 2431 669 2431 922 
Q 2431 1156 2273 1281 
Q 2116 1406 1581 1522 
L 1381 1569 
Q 847 1681 609 1914 
Q 372 2147 372 2553 
Q 372 3047 722 3315 
Q 1072 3584 1716 3584 
Q 2034 3584 2315 3537 
Q 2597 3491 2834 3397 
z
" transform="scale(0.015625)"/>
       <path id="DejaVuSans-4c" d="M 628 4666 
L 1259 4666 
L 1259 531 
L 3531 531 
L 3531 0 
L 628 0 
L 628 4666 
z
" transform="scale(0.015625)"/>
       <path id="DejaVuSans-62" d="M 3116 1747 
Q 3116 2381 2855 2742 
Q 2594 3103 2138 3103 
Q 1681 3103 1420 2742 
Q 1159 2381 1159 1747 
Q 1159 1113 1420 752 
Q 1681 391 2138 391 
Q 2594 391 2855 752 
Q 3116 1113 3116 1747 
z
M 1159 2969 
Q 1341 3281 1617 3432 
Q 1894 3584 2278 3584 
Q 2916 3584 3314 3078 
Q 3713 2572 3713 1747 
Q 3713 922 3314 415 
Q 2916 -91 2278 -91 
Q 1894 -91 1617 61 
Q 1341 213 1159 525 
L 1159 0 
L 581 0 
L 581 4863 
L 1159 4863 
L 1159 2969 
z
" transform="scale(0.015625)"/>
       <path id="DejaVuSans-6c" d="M 603 4863 
L 1178 4863 
L 1178 0 
L 603 0 
L 603 4863 
z
" transform="scale(0.015625)"/>
      </defs>
      <use xlink:href="#DejaVuSans-53"/>
      <use xlink:href="#DejaVuSans-65" x="63.476562"/>
      <use xlink:href="#DejaVuSans-63" x="125"/>
      <use xlink:href="#DejaVuSans-6f" x="179.980469"/>
      <use xlink:href="#DejaVuSans-6e" x="241.162109"/>
      <use xlink:href="#DejaVuSans-64" x="304.541016"/>
      <use xlink:href="#DejaVuSans-61" x="368.017578"/>
      <use xlink:href="#DejaVuSans-72" x="429.296875"/>
      <use xlink:href="#DejaVuSans-79" x="470.410156"/>
      <use xlink:href="#DejaVuSans-20" x="529.589844"/>
      <use xlink:href="#DejaVuSans-59" x="561.376953"/>
      <use xlink:href="#DejaVuSans-2d" x="610.585938"/>
      <use xlink:href="#DejaVuSans-61" x="646.669922"/>
      <use xlink:href="#DejaVuSans-78" x="707.949219"/>
      <use xlink:href="#DejaVuSans-69" x="767.128906"/>
      <use xlink:href="#DejaVuSans-73" x="794.912109"/>
      <use xlink:href="#DejaVuSans-20" x="847.011719"/>
      <use xlink:href="#DejaVuSans-4c" x="878.798828"/>
      <use xlink:href="#DejaVuSans-61" x="934.511719"/>
      <use xlink:href="#DejaVuSans-62" x="995.791016"/>
      <use xlink:href="#DejaVuSans-65" x="1059.267578"/>
      <use xlink:href="#DejaVuSans-6c" x="1120.791016"/>
     </g>
    </g>
   </g>
   <g id="line2d_15">
    <path d="M 533.098663 131.489652 
L 1091.796337 131.489652 
L 1091.796337 131.489652 
" clip-path="url(#p3637548e5b)" style="fill: none; stroke-dasharray: 41.6,10.4,6.5,10.4; stroke-dashoffset: 0; stroke: #000000; stroke-width: 6.5"/>
   </g>
   <g id="line2d_16">
    <path d="M 533.098663 88.755397 
L 814.400988 88.897302 
L 816.633547 89.190615 
L 818.866105 89.730707 
L 821.098663 90.50728 
L 823.331221 91.499554 
L 826.121919 93.008696 
L 828.912616 94.773928 
L 832.261453 97.169772 
L 836.16843 100.264769 
L 841.191686 104.56167 
L 851.238198 113.560906 
L 857.935872 119.404253 
L 862.959128 123.522654 
L 867.424244 126.921122 
L 871.88936 130.029403 
L 875.796337 132.492526 
L 879.703314 134.703408 
L 883.610291 136.658574 
L 887.517267 138.364977 
L 891.424244 139.828404 
L 895.331221 141.064308 
L 899.796337 142.225714 
L 904.261453 143.147662 
L 909.284709 143.943356 
L 914.866105 144.58616 
L 921.563779 145.108123 
L 929.935872 145.50952 
L 942.214942 145.844817 
L 1046.587035 147.957535 
L 1083.982384 148.356946 
L 1091.796337 148.418309 
L 1091.796337 148.418309 
" clip-path="url(#p3637548e5b)" style="fill: none; stroke: #1f77b4; stroke-width: 6.5; stroke-linecap: square"/>
   </g>
   <g id="line2d_17">
    <path d="M 533.098663 88.755397 
L 814.400988 88.900427 
L 816.633547 89.201232 
L 818.866105 89.749591 
L 821.098663 90.534061 
L 823.331221 91.53406 
L 826.121919 93.052086 
L 828.912616 94.825659 
L 832.261453 97.230522 
L 836.16843 100.330706 
L 841.191686 104.629731 
L 860.72657 121.726033 
L 865.191686 125.215044 
L 869.656802 128.423097 
L 873.563779 130.972921 
L 877.470756 133.267625 
L 881.377733 135.300218 
L 885.284709 137.071257 
L 889.191686 138.58797 
L 893.098663 139.863037 
L 897.00564 140.914758 
L 901.470756 141.869989 
L 905.935872 142.596065 
L 910.959128 143.184288 
L 916.540523 143.612088 
L 923.238198 143.895691 
L 932.16843 144.024455 
L 946.121919 143.960099 
L 985.749826 143.6941 
L 1023.145174 143.758264 
L 1091.796337 143.946264 
L 1091.796337 143.946264 
" clip-path="url(#p3637548e5b)" style="fill: none; stroke: #ff7f0e; stroke-width: 6.5; stroke-linecap: square"/>
   </g>
   <g id="line2d_18">
    <path d="M 533.098663 75.62764 
L 624.075407 74.982697 
L 715.052151 74.560502 
L 807.145174 74.356794 
L 815.517267 74.421333 
L 817.191686 74.732587 
L 818.866105 75.26315 
L 821.098663 76.243195 
L 823.331221 77.464663 
L 826.121919 79.250834 
L 829.470756 81.685239 
L 833.377733 84.829886 
L 837.842849 88.728269 
L 843.982384 94.415972 
L 858.494012 108.031104 
L 862.959128 111.868034 
L 866.866105 114.939227 
L 870.773081 117.693792 
L 874.121919 119.774149 
L 876.912616 121.260785 
L 879.703314 122.501864 
L 883.052151 123.707899 
L 885.842849 124.482084 
L 888.633547 125.037242 
L 891.982384 125.465549 
L 894.773081 125.617367 
L 899.238198 125.619627 
L 903.703314 125.41495 
L 909.284709 124.925612 
L 931.610291 122.720224 
L 967.331221 120.231577 
L 981.842849 119.459028 
L 995.238198 118.968268 
L 1009.191686 118.684886 
L 1024.819593 118.599705 
L 1044.354477 118.732746 
L 1081.749826 119.272953 
L 1091.796337 119.413859 
L 1091.796337 119.413859 
" clip-path="url(#p3637548e5b)" style="fill: none; stroke: #2ca02c; stroke-width: 6.5; stroke-linecap: square"/>
   </g>
   <g id="line2d_19">
    <path d="M 533.098663 88.755357 
L 814.400988 88.897268 
L 816.633547 89.19058 
L 818.866105 89.730671 
L 821.098663 90.507244 
L 823.331221 91.499519 
L 826.121919 93.008872 
L 828.912616 94.774235 
L 832.261453 97.170188 
L 836.16843 100.265261 
L 841.191686 104.562196 
L 851.238198 113.561301 
L 857.935872 119.404444 
L 862.959128 123.522645 
L 867.424244 126.920914 
L 871.88936 130.028983 
L 875.796337 132.491918 
L 879.703314 134.702616 
L 883.610291 136.657609 
L 887.517267 138.363857 
L 891.424244 139.82715 
L 895.331221 141.062944 
L 899.796337 142.224255 
L 904.261453 143.146142 
L 909.284709 143.941805 
L 914.866105 144.584613 
L 921.563779 145.106627 
L 929.935872 145.508132 
L 942.214942 145.843632 
L 1046.587035 147.957289 
L 1083.982384 148.35676 
L 1091.796337 148.418131 
L 1091.796337 148.418131 
" clip-path="url(#p3637548e5b)" style="fill: none; stroke: #d62728; stroke-width: 6.5; stroke-linecap: square"/>
   </g>
   <g id="line2d_20">
    <path d="M 533.098663 88.755357 
L 814.400988 88.900394 
L 816.633547 89.201201 
L 818.866105 89.749562 
L 821.098663 90.534034 
L 823.331221 91.534033 
L 826.121919 93.052058 
L 828.912616 94.82563 
L 832.261453 97.230495 
L 836.16843 100.330682 
L 841.191686 104.629709 
L 860.72657 121.726019 
L 865.191686 125.215031 
L 869.656802 128.423086 
L 873.563779 130.97291 
L 877.470756 133.267615 
L 881.377733 135.300209 
L 885.284709 137.071248 
L 889.191686 138.587962 
L 893.098663 139.86303 
L 897.00564 140.914753 
L 901.470756 141.869985 
L 905.935872 142.596062 
L 910.959128 143.184218 
L 916.540523 143.611981 
L 923.238198 143.895558 
L 932.16843 144.024296 
L 946.121919 143.959911 
L 985.749826 143.693896 
L 1023.145174 143.758082 
L 1091.796337 143.946121 
L 1091.796337 143.946121 
" clip-path="url(#p3637548e5b)" style="fill: none; stroke: #9467bd; stroke-width: 6.5; stroke-linecap: square"/>
   </g>
   <g id="patch_3">
    <path d="M 533.4475 153.952941 
L 533.4475 56.117647 
" style="fill: none; stroke: #000000; stroke-width: 0.8; stroke-linejoin: miter; stroke-linecap: square"/>
   </g>
   <g id="patch_4">
    <path d="M 1091.4475 153.952941 
L 1091.4475 56.117647 
" style="fill: none; stroke: #000000; stroke-width: 0.8; stroke-linejoin: miter; stroke-linecap: square"/>
   </g>
   <g id="patch_5">
    <path d="M 533.4475 153.952941 
L 1091.4475 153.952941 
" style="fill: none; stroke: #000000; stroke-width: 0.8; stroke-linejoin: miter; stroke-linecap: square"/>
   </g>
   <g id="patch_6">
    <path d="M 533.4475 56.117647 
L 1091.4475 56.117647 
" style="fill: none; stroke: #000000; stroke-width: 0.8; stroke-linejoin: miter; stroke-linecap: square"/>
   </g>
   <g id="legend_1">
    <g id="patch_7">
     <path d="M 13.6 80.38375 
L 1100.2075 80.38375 
Q 1104.6075 80.38375 1104.6075 75.98375 
L 1104.6075 13.6 
Q 1104.6075 9.2 1100.2075 9.2 
L 13.6 9.2 
Q 9.2 9.2 9.2 13.6 
L 9.2 75.98375 
Q 9.2 80.38375 13.6 80.38375 
z
" style="fill: #4d4d4d; opacity: 0.5; stroke: #4d4d4d; stroke-linejoin: miter"/>
    </g>
    <g id="patch_8">
     <path d="M 11.6 78.38375 
L 1098.2075 78.38375 
Q 1102.6075 78.38375 1102.6075 73.98375 
L 1102.6075 11.6 
Q 1102.6075 7.2 1098.2075 7.2 
L 11.6 7.2 
Q 7.2 7.2 7.2 11.6 
L 7.2 73.98375 
Q 7.2 78.38375 11.6 78.38375 
z
" style="fill: #ffffff; stroke: #cccccc; stroke-linejoin: miter"/>
    </g>
    <g id="line2d_21">
     <path d="M 16 25.016562 
L 38 25.016562 
L 60 25.016562 
" style="fill: none; stroke: #ff7f0e; stroke-width: 6.5; stroke-linecap: square"/>
    </g>
    <g id="text_4">
     <!-- FDDP with collision cost = 10 -->
     <g transform="translate(77.6 32.716562) scale(0.22 -0.22)">
      <defs>
       <path id="DejaVuSans-46" d="M 628 4666 
L 3309 4666 
L 3309 4134 
L 1259 4134 
L 1259 2759 
L 3109 2759 
L 3109 2228 
L 1259 2228 
L 1259 0 
L 628 0 
L 628 4666 
z
" transform="scale(0.015625)"/>
       <path id="DejaVuSans-44" d="M 1259 4147 
L 1259 519 
L 2022 519 
Q 2988 519 3436 956 
Q 3884 1394 3884 2338 
Q 3884 3275 3436 3711 
Q 2988 4147 2022 4147 
L 1259 4147 
z
M 628 4666 
L 1925 4666 
Q 3281 4666 3915 4102 
Q 4550 3538 4550 2338 
Q 4550 1131 3912 565 
Q 3275 0 1925 0 
L 628 0 
L 628 4666 
z
" transform="scale(0.015625)"/>
       <path id="DejaVuSans-50" d="M 1259 4147 
L 1259 2394 
L 2053 2394 
Q 2494 2394 2734 2622 
Q 2975 2850 2975 3272 
Q 2975 3691 2734 3919 
Q 2494 4147 2053 4147 
L 1259 4147 
z
M 628 4666 
L 2053 4666 
Q 2838 4666 3239 4311 
Q 3641 3956 3641 3272 
Q 3641 2581 3239 2228 
Q 2838 1875 2053 1875 
L 1259 1875 
L 1259 0 
L 628 0 
L 628 4666 
z
" transform="scale(0.015625)"/>
       <path id="DejaVuSans-77" d="M 269 3500 
L 844 3500 
L 1563 769 
L 2278 3500 
L 2956 3500 
L 3675 769 
L 4391 3500 
L 4966 3500 
L 4050 0 
L 3372 0 
L 2619 2869 
L 1863 0 
L 1184 0 
L 269 3500 
z
" transform="scale(0.015625)"/>
       <path id="DejaVuSans-74" d="M 1172 4494 
L 1172 3500 
L 2356 3500 
L 2356 3053 
L 1172 3053 
L 1172 1153 
Q 1172 725 1289 603 
Q 1406 481 1766 481 
L 2356 481 
L 2356 0 
L 1766 0 
Q 1100 0 847 248 
Q 594 497 594 1153 
L 594 3053 
L 172 3053 
L 172 3500 
L 594 3500 
L 594 4494 
L 1172 4494 
z
" transform="scale(0.015625)"/>
       <path id="DejaVuSans-68" d="M 3513 2113 
L 3513 0 
L 2938 0 
L 2938 2094 
Q 2938 2591 2744 2837 
Q 2550 3084 2163 3084 
Q 1697 3084 1428 2787 
Q 1159 2491 1159 1978 
L 1159 0 
L 581 0 
L 581 4863 
L 1159 4863 
L 1159 2956 
Q 1366 3272 1645 3428 
Q 1925 3584 2291 3584 
Q 2894 3584 3203 3211 
Q 3513 2838 3513 2113 
z
" transform="scale(0.015625)"/>
       <path id="DejaVuSans-3d" d="M 678 2906 
L 4684 2906 
L 4684 2381 
L 678 2381 
L 678 2906 
z
M 678 1631 
L 4684 1631 
L 4684 1100 
L 678 1100 
L 678 1631 
z
" transform="scale(0.015625)"/>
       <path id="DejaVuSans-31" d="M 794 531 
L 1825 531 
L 1825 4091 
L 703 3866 
L 703 4441 
L 1819 4666 
L 2450 4666 
L 2450 531 
L 3481 531 
L 3481 0 
L 794 0 
L 794 531 
z
" transform="scale(0.015625)"/>
      </defs>
      <use xlink:href="#DejaVuSans-46"/>
      <use xlink:href="#DejaVuSans-44" x="57.519531"/>
      <use xlink:href="#DejaVuSans-44" x="134.521484"/>
      <use xlink:href="#DejaVuSans-50" x="211.523438"/>
      <use xlink:href="#DejaVuSans-20" x="271.826172"/>
      <use xlink:href="#DejaVuSans-77" x="303.613281"/>
      <use xlink:href="#DejaVuSans-69" x="385.400391"/>
      <use xlink:href="#DejaVuSans-74" x="413.183594"/>
      <use xlink:href="#DejaVuSans-68" x="452.392578"/>
      <use xlink:href="#DejaVuSans-20" x="515.771484"/>
      <use xlink:href="#DejaVuSans-63" x="547.558594"/>
      <use xlink:href="#DejaVuSans-6f" x="602.539062"/>
      <use xlink:href="#DejaVuSans-6c" x="663.720703"/>
      <use xlink:href="#DejaVuSans-6c" x="691.503906"/>
      <use xlink:href="#DejaVuSans-69" x="719.287109"/>
      <use xlink:href="#DejaVuSans-73" x="747.070312"/>
      <use xlink:href="#DejaVuSans-69" x="799.169922"/>
      <use xlink:href="#DejaVuSans-6f" x="826.953125"/>
      <use xlink:href="#DejaVuSans-6e" x="888.134766"/>
      <use xlink:href="#DejaVuSans-20" x="951.513672"/>
      <use xlink:href="#DejaVuSans-63" x="983.300781"/>
      <use xlink:href="#DejaVuSans-6f" x="1038.28125"/>
      <use xlink:href="#DejaVuSans-73" x="1099.462891"/>
      <use xlink:href="#DejaVuSans-74" x="1151.5625"/>
      <use xlink:href="#DejaVuSans-20" x="1190.771484"/>
      <use xlink:href="#DejaVuSans-3d" x="1222.558594"/>
      <use xlink:href="#DejaVuSans-20" x="1306.347656"/>
      <use xlink:href="#DejaVuSans-31" x="1338.134766"/>
      <use xlink:href="#DejaVuSans-30" x="1401.757812"/>
     </g>
    </g>
    <g id="line2d_22">
     <path d="M 16 57.308437 
L 38 57.308437 
L 60 57.308437 
" style="fill: none; stroke: #1f77b4; stroke-width: 6.5; stroke-linecap: square"/>
    </g>
    <g id="text_5">
     <!-- FDDP with collision cost = 100 -->
     <g transform="translate(77.6 65.008437) scale(0.22 -0.22)">
      <use xlink:href="#DejaVuSans-46"/>
      <use xlink:href="#DejaVuSans-44" x="57.519531"/>
      <use xlink:href="#DejaVuSans-44" x="134.521484"/>
      <use xlink:href="#DejaVuSans-50" x="211.523438"/>
      <use xlink:href="#DejaVuSans-20" x="271.826172"/>
      <use xlink:href="#DejaVuSans-77" x="303.613281"/>
      <use xlink:href="#DejaVuSans-69" x="385.400391"/>
      <use xlink:href="#DejaVuSans-74" x="413.183594"/>
      <use xlink:href="#DejaVuSans-68" x="452.392578"/>
      <use xlink:href="#DejaVuSans-20" x="515.771484"/>
      <use xlink:href="#DejaVuSans-63" x="547.558594"/>
      <use xlink:href="#DejaVuSans-6f" x="602.539062"/>
      <use xlink:href="#DejaVuSans-6c" x="663.720703"/>
      <use xlink:href="#DejaVuSans-6c" x="691.503906"/>
      <use xlink:href="#DejaVuSans-69" x="719.287109"/>
      <use xlink:href="#DejaVuSans-73" x="747.070312"/>
      <use xlink:href="#DejaVuSans-69" x="799.169922"/>
      <use xlink:href="#DejaVuSans-6f" x="826.953125"/>
      <use xlink:href="#DejaVuSans-6e" x="888.134766"/>
      <use xlink:href="#DejaVuSans-20" x="951.513672"/>
      <use xlink:href="#DejaVuSans-63" x="983.300781"/>
      <use xlink:href="#DejaVuSans-6f" x="1038.28125"/>
      <use xlink:href="#DejaVuSans-73" x="1099.462891"/>
      <use xlink:href="#DejaVuSans-74" x="1151.5625"/>
      <use xlink:href="#DejaVuSans-20" x="1190.771484"/>
      <use xlink:href="#DejaVuSans-3d" x="1222.558594"/>
      <use xlink:href="#DejaVuSans-20" x="1306.347656"/>
      <use xlink:href="#DejaVuSans-31" x="1338.134766"/>
      <use xlink:href="#DejaVuSans-30" x="1401.757812"/>
      <use xlink:href="#DejaVuSans-30" x="1465.380859"/>
     </g>
    </g>
    <g id="line2d_23">
     <path d="M 457.969688 25.016562 
L 479.969688 25.016562 
L 501.969688 25.016562 
" style="fill: none; stroke: #9467bd; stroke-width: 6.5; stroke-linecap: square"/>
    </g>
    <g id="text_6">
     <!-- SQP with collision cost = 10 -->
     <g transform="translate(519.569688 32.716562) scale(0.22 -0.22)">
      <defs>
       <path id="DejaVuSans-51" d="M 2522 4238 
Q 1834 4238 1429 3725 
Q 1025 3213 1025 2328 
Q 1025 1447 1429 934 
Q 1834 422 2522 422 
Q 3209 422 3611 934 
Q 4013 1447 4013 2328 
Q 4013 3213 3611 3725 
Q 3209 4238 2522 4238 
z
M 3406 84 
L 4238 -825 
L 3475 -825 
L 2784 -78 
Q 2681 -84 2626 -87 
Q 2572 -91 2522 -91 
Q 1538 -91 948 567 
Q 359 1225 359 2328 
Q 359 3434 948 4092 
Q 1538 4750 2522 4750 
Q 3503 4750 4090 4092 
Q 4678 3434 4678 2328 
Q 4678 1516 4351 937 
Q 4025 359 3406 84 
z
" transform="scale(0.015625)"/>
      </defs>
      <use xlink:href="#DejaVuSans-53"/>
      <use xlink:href="#DejaVuSans-51" x="63.476562"/>
      <use xlink:href="#DejaVuSans-50" x="142.1875"/>
      <use xlink:href="#DejaVuSans-20" x="202.490234"/>
      <use xlink:href="#DejaVuSans-77" x="234.277344"/>
      <use xlink:href="#DejaVuSans-69" x="316.064453"/>
      <use xlink:href="#DejaVuSans-74" x="343.847656"/>
      <use xlink:href="#DejaVuSans-68" x="383.056641"/>
      <use xlink:href="#DejaVuSans-20" x="446.435547"/>
      <use xlink:href="#DejaVuSans-63" x="478.222656"/>
      <use xlink:href="#DejaVuSans-6f" x="533.203125"/>
      <use xlink:href="#DejaVuSans-6c" x="594.384766"/>
      <use xlink:href="#DejaVuSans-6c" x="622.167969"/>
      <use xlink:href="#DejaVuSans-69" x="649.951172"/>
      <use xlink:href="#DejaVuSans-73" x="677.734375"/>
      <use xlink:href="#DejaVuSans-69" x="729.833984"/>
      <use xlink:href="#DejaVuSans-6f" x="757.617188"/>
      <use xlink:href="#DejaVuSans-6e" x="818.798828"/>
      <use xlink:href="#DejaVuSans-20" x="882.177734"/>
      <use xlink:href="#DejaVuSans-63" x="913.964844"/>
      <use xlink:href="#DejaVuSans-6f" x="968.945312"/>
      <use xlink:href="#DejaVuSans-73" x="1030.126953"/>
      <use xlink:href="#DejaVuSans-74" x="1082.226562"/>
      <use xlink:href="#DejaVuSans-20" x="1121.435547"/>
      <use xlink:href="#DejaVuSans-3d" x="1153.222656"/>
      <use xlink:href="#DejaVuSans-20" x="1237.011719"/>
      <use xlink:href="#DejaVuSans-31" x="1268.798828"/>
      <use xlink:href="#DejaVuSans-30" x="1332.421875"/>
     </g>
    </g>
    <g id="line2d_24">
     <path d="M 457.969688 57.308437 
L 479.969688 57.308437 
L 501.969688 57.308437 
" style="fill: none; stroke: #d62728; stroke-width: 6.5; stroke-linecap: square"/>
    </g>
    <g id="text_7">
     <!-- SQP with collision cost = 100 -->
     <g transform="translate(519.569688 65.008437) scale(0.22 -0.22)">
      <use xlink:href="#DejaVuSans-53"/>
      <use xlink:href="#DejaVuSans-51" x="63.476562"/>
      <use xlink:href="#DejaVuSans-50" x="142.1875"/>
      <use xlink:href="#DejaVuSans-20" x="202.490234"/>
      <use xlink:href="#DejaVuSans-77" x="234.277344"/>
      <use xlink:href="#DejaVuSans-69" x="316.064453"/>
      <use xlink:href="#DejaVuSans-74" x="343.847656"/>
      <use xlink:href="#DejaVuSans-68" x="383.056641"/>
      <use xlink:href="#DejaVuSans-20" x="446.435547"/>
      <use xlink:href="#DejaVuSans-63" x="478.222656"/>
      <use xlink:href="#DejaVuSans-6f" x="533.203125"/>
      <use xlink:href="#DejaVuSans-6c" x="594.384766"/>
      <use xlink:href="#DejaVuSans-6c" x="622.167969"/>
      <use xlink:href="#DejaVuSans-69" x="649.951172"/>
      <use xlink:href="#DejaVuSans-73" x="677.734375"/>
      <use xlink:href="#DejaVuSans-69" x="729.833984"/>
      <use xlink:href="#DejaVuSans-6f" x="757.617188"/>
      <use xlink:href="#DejaVuSans-6e" x="818.798828"/>
      <use xlink:href="#DejaVuSans-20" x="882.177734"/>
      <use xlink:href="#DejaVuSans-63" x="913.964844"/>
      <use xlink:href="#DejaVuSans-6f" x="968.945312"/>
      <use xlink:href="#DejaVuSans-73" x="1030.126953"/>
      <use xlink:href="#DejaVuSans-74" x="1082.226562"/>
      <use xlink:href="#DejaVuSans-20" x="1121.435547"/>
      <use xlink:href="#DejaVuSans-3d" x="1153.222656"/>
      <use xlink:href="#DejaVuSans-20" x="1237.011719"/>
      <use xlink:href="#DejaVuSans-31" x="1268.798828"/>
      <use xlink:href="#DejaVuSans-30" x="1332.421875"/>
      <use xlink:href="#DejaVuSans-30" x="1396.044922"/>
     </g>
    </g>
    <g id="line2d_25">
     <path d="M 884.690625 25.016562 
L 906.690625 25.016562 
L 928.690625 25.016562 
" style="fill: none; stroke: #2ca02c; stroke-width: 6.5; stroke-linecap: square"/>
    </g>
    <g id="text_8">
     <!-- CSQP -->
     <g transform="translate(946.290625 32.716562) scale(0.22 -0.22)">
      <defs>
       <path id="DejaVuSans-43" d="M 4122 4306 
L 4122 3641 
Q 3803 3938 3442 4084 
Q 3081 4231 2675 4231 
Q 1875 4231 1450 3742 
Q 1025 3253 1025 2328 
Q 1025 1406 1450 917 
Q 1875 428 2675 428 
Q 3081 428 3442 575 
Q 3803 722 4122 1019 
L 4122 359 
Q 3791 134 3420 21 
Q 3050 -91 2638 -91 
Q 1578 -91 968 557 
Q 359 1206 359 2328 
Q 359 3453 968 4101 
Q 1578 4750 2638 4750 
Q 3056 4750 3426 4639 
Q 3797 4528 4122 4306 
z
" transform="scale(0.015625)"/>
      </defs>
      <use xlink:href="#DejaVuSans-43"/>
      <use xlink:href="#DejaVuSans-53" x="69.824219"/>
      <use xlink:href="#DejaVuSans-51" x="133.300781"/>
      <use xlink:href="#DejaVuSans-50" x="212.011719"/>
     </g>
    </g>
    <g id="line2d_26">
     <path d="M 884.690625 57.308437 
L 906.690625 57.308437 
L 928.690625 57.308437 
" style="fill: none; stroke-dasharray: 41.6,10.4,6.5,10.4; stroke-dashoffset: 0; stroke: #000000; stroke-width: 6.5"/>
    </g>
    <g id="text_9">
     <!-- Collision limit -->
     <g transform="translate(946.290625 65.008437) scale(0.22 -0.22)">
      <defs>
       <path id="DejaVuSans-6d" d="M 3328 2828 
Q 3544 3216 3844 3400 
Q 4144 3584 4550 3584 
Q 5097 3584 5394 3201 
Q 5691 2819 5691 2113 
L 5691 0 
L 5113 0 
L 5113 2094 
Q 5113 2597 4934 2840 
Q 4756 3084 4391 3084 
Q 3944 3084 3684 2787 
Q 3425 2491 3425 1978 
L 3425 0 
L 2847 0 
L 2847 2094 
Q 2847 2600 2669 2842 
Q 2491 3084 2119 3084 
Q 1678 3084 1418 2786 
Q 1159 2488 1159 1978 
L 1159 0 
L 581 0 
L 581 3500 
L 1159 3500 
L 1159 2956 
Q 1356 3278 1631 3431 
Q 1906 3584 2284 3584 
Q 2666 3584 2933 3390 
Q 3200 3197 3328 2828 
z
" transform="scale(0.015625)"/>
      </defs>
      <use xlink:href="#DejaVuSans-43"/>
      <use xlink:href="#DejaVuSans-6f" x="69.824219"/>
      <use xlink:href="#DejaVuSans-6c" x="131.005859"/>
      <use xlink:href="#DejaVuSans-6c" x="158.789062"/>
      <use xlink:href="#DejaVuSans-69" x="186.572266"/>
      <use xlink:href="#DejaVuSans-73" x="214.355469"/>
      <use xlink:href="#DejaVuSans-69" x="266.455078"/>
      <use xlink:href="#DejaVuSans-6f" x="294.238281"/>
      <use xlink:href="#DejaVuSans-6e" x="355.419922"/>
      <use xlink:href="#DejaVuSans-20" x="418.798828"/>
      <use xlink:href="#DejaVuSans-6c" x="450.585938"/>
      <use xlink:href="#DejaVuSans-69" x="478.369141"/>
      <use xlink:href="#DejaVuSans-6d" x="506.152344"/>
      <use xlink:href="#DejaVuSans-69" x="603.564453"/>
      <use xlink:href="#DejaVuSans-74" x="631.347656"/>
     </g>
    </g>
   </g>
  </g>
  <g id="axes_2">
   <g id="patch_9">
    <path d="M 533.4475 271.355294 
L 1091.4475 271.355294 
L 1091.4475 173.52 
L 533.4475 173.52 
z
" style="fill: #ffffff"/>
   </g>
   <g id="matplotlib.axis_3">
    <g id="xtick_6">
     <g id="line2d_27">
      <path d="M 589.2475 271.355294 
L 589.2475 173.52 
" clip-path="url(#p33be50a95e)" style="fill: none; stroke: #b0b0b0; stroke-width: 0.8; stroke-linecap: square"/>
     </g>
     <g id="line2d_28">
      <g>
       <use xlink:href="#mf7f3c87ea8" x="589.2475" y="271.355294" style="stroke: #000000; stroke-width: 0.8"/>
      </g>
     </g>
    </g>
    <g id="xtick_7">
     <g id="line2d_29">
      <path d="M 700.8475 271.355294 
L 700.8475 173.52 
" clip-path="url(#p33be50a95e)" style="fill: none; stroke: #b0b0b0; stroke-width: 0.8; stroke-linecap: square"/>
     </g>
     <g id="line2d_30">
      <g>
       <use xlink:href="#mf7f3c87ea8" x="700.8475" y="271.355294" style="stroke: #000000; stroke-width: 0.8"/>
      </g>
     </g>
    </g>
    <g id="xtick_8">
     <g id="line2d_31">
      <path d="M 812.4475 271.355294 
L 812.4475 173.52 
" clip-path="url(#p33be50a95e)" style="fill: none; stroke: #b0b0b0; stroke-width: 0.8; stroke-linecap: square"/>
     </g>
     <g id="line2d_32">
      <g>
       <use xlink:href="#mf7f3c87ea8" x="812.4475" y="271.355294" style="stroke: #000000; stroke-width: 0.8"/>
      </g>
     </g>
    </g>
    <g id="xtick_9">
     <g id="line2d_33">
      <path d="M 924.0475 271.355294 
L 924.0475 173.52 
" clip-path="url(#p33be50a95e)" style="fill: none; stroke: #b0b0b0; stroke-width: 0.8; stroke-linecap: square"/>
     </g>
     <g id="line2d_34">
      <g>
       <use xlink:href="#mf7f3c87ea8" x="924.0475" y="271.355294" style="stroke: #000000; stroke-width: 0.8"/>
      </g>
     </g>
    </g>
    <g id="xtick_10">
     <g id="line2d_35">
      <path d="M 1035.6475 271.355294 
L 1035.6475 173.52 
" clip-path="url(#p33be50a95e)" style="fill: none; stroke: #b0b0b0; stroke-width: 0.8; stroke-linecap: square"/>
     </g>
     <g id="line2d_36">
      <g>
       <use xlink:href="#mf7f3c87ea8" x="1035.6475" y="271.355294" style="stroke: #000000; stroke-width: 0.8"/>
      </g>
     </g>
    </g>
   </g>
   <g id="matplotlib.axis_4">
    <g id="ytick_3">
     <g id="line2d_37">
      <path d="M 533.4475 252.087898 
L 1091.4475 252.087898 
" clip-path="url(#p33be50a95e)" style="fill: none; stroke: #b0b0b0; stroke-width: 0.8; stroke-linecap: square"/>
     </g>
     <g id="line2d_38">
      <g>
       <use xlink:href="#mcd72558d6d" x="533.4475" y="252.087898" style="stroke: #000000; stroke-width: 0.8"/>
      </g>
     </g>
     <g id="text_10">
      <!-- 0.00 -->
      <g transform="translate(470.783437 261.585945) scale(0.25 -0.25)">
       <use xlink:href="#DejaVuSans-30"/>
       <use xlink:href="#DejaVuSans-2e" x="63.623047"/>
       <use xlink:href="#DejaVuSans-30" x="95.410156"/>
       <use xlink:href="#DejaVuSans-30" x="159.033203"/>
      </g>
     </g>
    </g>
    <g id="ytick_4">
     <g id="line2d_39">
      <path d="M 533.4475 182.288829 
L 1091.4475 182.288829 
" clip-path="url(#p33be50a95e)" style="fill: none; stroke: #b0b0b0; stroke-width: 0.8; stroke-linecap: square"/>
     </g>
     <g id="line2d_40">
      <g>
       <use xlink:href="#mcd72558d6d" x="533.4475" y="182.288829" style="stroke: #000000; stroke-width: 0.8"/>
      </g>
     </g>
     <g id="text_11">
      <!-- 0.25 -->
      <g transform="translate(470.783437 191.786876) scale(0.25 -0.25)">
       <use xlink:href="#DejaVuSans-30"/>
       <use xlink:href="#DejaVuSans-2e" x="63.623047"/>
       <use xlink:href="#DejaVuSans-32" x="95.410156"/>
       <use xlink:href="#DejaVuSans-35" x="159.033203"/>
      </g>
     </g>
    </g>
    <g id="text_12">
     <!-- Link 7 -->
     <g transform="translate(461.584219 259.961085) rotate(-90) scale(0.25 -0.25)">
      <defs>
       <path id="DejaVuSans-6b" d="M 581 4863 
L 1159 4863 
L 1159 1991 
L 2875 3500 
L 3609 3500 
L 1753 1863 
L 3688 0 
L 2938 0 
L 1159 1709 
L 1159 0 
L 581 0 
L 581 4863 
z
" transform="scale(0.015625)"/>
       <path id="DejaVuSans-37" d="M 525 4666 
L 3525 4666 
L 3525 4397 
L 1831 0 
L 1172 0 
L 2766 4134 
L 525 4134 
L 525 4666 
z
" transform="scale(0.015625)"/>
      </defs>
      <use xlink:href="#DejaVuSans-4c"/>
      <use xlink:href="#DejaVuSans-69" x="55.712891"/>
      <use xlink:href="#DejaVuSans-6e" x="83.496094"/>
      <use xlink:href="#DejaVuSans-6b" x="146.875"/>
      <use xlink:href="#DejaVuSans-20" x="204.785156"/>
      <use xlink:href="#DejaVuSans-37" x="236.572266"/>
     </g>
    </g>
   </g>
   <g id="line2d_41">
    <path d="M 533.098663 252.087898 
L 1091.796337 252.087898 
L 1091.796337 252.087898 
" clip-path="url(#p33be50a95e)" style="fill: none; stroke-dasharray: 41.6,10.4,6.5,10.4; stroke-dashoffset: 0; stroke: #000000; stroke-width: 6.5"/>
   </g>
   <g id="line2d_42">
    <path d="M 533.098663 231.658687 
L 813.284709 231.768174 
L 814.959128 232.081636 
L 816.633547 232.601526 
L 818.866105 233.544756 
L 821.098663 234.730659 
L 823.88936 236.500079 
L 826.680058 238.534191 
L 830.028895 241.242968 
L 834.494012 245.165599 
L 847.331221 256.687429 
L 850.680058 259.350515 
L 854.028895 261.714507 
L 856.819593 263.398617 
L 859.052151 264.529605 
L 861.284709 265.450254 
L 863.517267 266.14899 
L 865.749826 266.620609 
L 867.982384 266.866233 
L 870.214942 266.89628 
L 872.4475 266.72697 
L 875.238198 266.268909 
L 878.028895 265.582517 
L 881.377733 264.52659 
L 885.842849 262.851602 
L 893.098663 259.835876 
L 902.587035 255.932997 
L 908.72657 253.643796 
L 914.307965 251.783261 
L 919.88936 250.148597 
L 925.470756 248.740364 
L 931.052151 247.550401 
L 937.191686 246.477063 
L 943.331221 245.627915 
L 950.028895 244.926254 
L 957.284709 244.390943 
L 965.656802 244.008816 
L 975.145174 243.808028 
L 986.866105 243.794054 
L 1003.610291 244.02261 
L 1067.796337 245.098768 
L 1091.796337 245.277231 
L 1091.796337 245.277231 
" clip-path="url(#p33be50a95e)" style="fill: none; stroke: #1f77b4; stroke-width: 6.5; stroke-linecap: square"/>
   </g>
   <g id="line2d_43">
    <path d="M 533.098663 231.658687 
L 813.284709 231.767963 
L 814.959128 232.080583 
L 816.633547 232.599901 
L 818.866105 233.543012 
L 821.098663 234.729338 
L 823.88936 236.502018 
L 826.680058 238.540974 
L 830.028895 241.259291 
L 834.494012 245.193861 
L 847.331221 256.741341 
L 850.680058 259.40222 
L 853.470756 261.389842 
L 856.261453 263.118984 
L 859.052151 264.547431 
L 861.284709 265.450413 
L 863.517267 266.127269 
L 865.749826 266.573125 
L 867.982384 266.790773 
L 870.214942 266.790913 
L 872.4475 266.59088 
L 875.238198 266.093686 
L 878.028895 265.3681 
L 881.377733 264.266676 
L 885.842849 262.535807 
L 893.656802 259.192392 
L 902.587035 255.426603 
L 908.72657 253.065696 
L 914.866105 250.953379 
L 920.4475 249.262724 
L 926.028895 247.789138 
L 932.16843 246.406818 
L 938.307965 245.255386 
L 945.00564 244.235417 
L 952.261453 243.373168 
L 960.075407 242.684176 
L 968.4475 242.171551 
L 977.935872 241.811027 
L 989.656802 241.600637 
L 1004.72657 241.573439 
L 1028.16843 241.784396 
L 1087.88936 242.373628 
L 1091.796337 242.396914 
L 1091.796337 242.396914 
" clip-path="url(#p33be50a95e)" style="fill: none; stroke: #ff7f0e; stroke-width: 6.5; stroke-linecap: square"/>
   </g>
   <g id="line2d_44">
    <path d="M 533.098663 219.631325 
L 659.238198 218.330983 
L 779.796337 217.309028 
L 817.749826 217.115759 
L 821.098663 217.391323 
L 824.4475 217.928964 
L 827.796337 218.703374 
L 831.703314 219.867432 
L 835.610291 221.266471 
L 840.633547 223.326233 
L 846.773081 226.111586 
L 863.517267 233.88725 
L 867.982384 235.663015 
L 872.4475 237.179293 
L 876.354477 238.280551 
L 880.261453 239.152961 
L 884.16843 239.800909 
L 888.075407 240.230878 
L 892.540523 240.481405 
L 897.00564 240.506939 
L 903.145174 240.296405 
L 910.400988 239.807747 
L 919.88936 238.93232 
L 926.028895 238.147966 
L 934.959128 236.743773 
L 962.307965 232.302838 
L 972.354477 230.967013 
L 981.842849 229.933018 
L 991.331221 229.129452 
L 1000.819593 228.547771 
L 1010.866105 228.150686 
L 1022.028895 227.934964 
L 1034.866105 227.919575 
L 1050.494012 228.137912 
L 1072.819593 228.695944 
L 1091.796337 229.239535 
L 1091.796337 229.239535 
" clip-path="url(#p33be50a95e)" style="fill: none; stroke: #2ca02c; stroke-width: 6.5; stroke-linecap: square"/>
   </g>
   <g id="line2d_45">
    <path d="M 533.098663 231.658655 
L 813.284709 231.768148 
L 814.959128 232.081609 
L 816.633547 232.601498 
L 818.866105 233.544726 
L 821.098663 234.730628 
L 823.88936 236.50008 
L 826.680058 238.534339 
L 830.028895 241.243248 
L 834.494012 245.165963 
L 847.331221 256.687396 
L 850.680058 259.350222 
L 854.028895 261.713897 
L 856.819593 263.397709 
L 859.052151 264.528445 
L 861.284709 265.448837 
L 863.517267 266.147322 
L 865.749826 266.618708 
L 867.982384 266.864124 
L 870.214942 266.893997 
L 872.4475 266.72455 
L 875.238198 266.26637 
L 878.028895 265.579916 
L 881.377733 264.523977 
L 885.842849 262.84905 
L 893.098663 259.833534 
L 902.587035 255.931009 
L 908.72657 253.642044 
L 914.307965 251.781714 
L 919.88936 250.147243 
L 925.470756 248.739188 
L 931.052151 247.54939 
L 937.191686 246.476216 
L 943.331221 245.627212 
L 950.028895 244.925689 
L 957.284709 244.390504 
L 965.656802 244.008494 
L 975.145174 243.807807 
L 986.866105 243.79392 
L 1003.610291 244.022547 
L 1067.796337 245.09874 
L 1091.796337 245.277198 
L 1091.796337 245.277198 
" clip-path="url(#p33be50a95e)" style="fill: none; stroke: #d62728; stroke-width: 6.5; stroke-linecap: square"/>
   </g>
   <g id="line2d_46">
    <path d="M 533.098663 231.658655 
L 813.284709 231.767937 
L 814.959128 232.080557 
L 816.633547 232.599876 
L 818.866105 233.542989 
L 821.098663 234.729316 
L 823.88936 236.501995 
L 826.680058 238.540949 
L 830.028895 241.259265 
L 834.494012 245.193839 
L 847.331221 256.741323 
L 850.680058 259.402204 
L 853.470756 261.389828 
L 856.261453 263.118973 
L 859.052151 264.547425 
L 861.284709 265.45041 
L 863.517267 266.127267 
L 865.749826 266.573126 
L 867.982384 266.790775 
L 870.214942 266.790917 
L 872.4475 266.590885 
L 875.238198 266.093692 
L 878.028895 265.368107 
L 881.377733 264.266684 
L 885.842849 262.535816 
L 893.656802 259.192401 
L 902.587035 255.426613 
L 908.72657 253.065712 
L 914.866105 250.953369 
L 920.4475 249.262683 
L 926.028895 247.789073 
L 932.16843 246.406734 
L 938.307965 245.255287 
L 945.00564 244.235308 
L 952.261453 243.373053 
L 960.075407 242.684059 
L 968.4475 242.171434 
L 977.935872 241.810915 
L 989.656802 241.600532 
L 1004.72657 241.573345 
L 1028.16843 241.784318 
L 1087.88936 242.373574 
L 1091.796337 242.396861 
L 1091.796337 242.396861 
" clip-path="url(#p33be50a95e)" style="fill: none; stroke: #9467bd; stroke-width: 6.5; stroke-linecap: square"/>
   </g>
   <g id="patch_10">
    <path d="M 533.4475 271.355294 
L 533.4475 173.52 
" style="fill: none; stroke: #000000; stroke-width: 0.8; stroke-linejoin: miter; stroke-linecap: square"/>
   </g>
   <g id="patch_11">
    <path d="M 1091.4475 271.355294 
L 1091.4475 173.52 
" style="fill: none; stroke: #000000; stroke-width: 0.8; stroke-linejoin: miter; stroke-linecap: square"/>
   </g>
   <g id="patch_12">
    <path d="M 533.4475 271.355294 
L 1091.4475 271.355294 
" style="fill: none; stroke: #000000; stroke-width: 0.8; stroke-linejoin: miter; stroke-linecap: square"/>
   </g>
   <g id="patch_13">
    <path d="M 533.4475 173.52 
L 1091.4475 173.52 
" style="fill: none; stroke: #000000; stroke-width: 0.8; stroke-linejoin: miter; stroke-linecap: square"/>
   </g>
  </g>
  <g id="axes_3">
   <g id="patch_14">
    <path d="M 533.4475 388.757647 
L 1091.4475 388.757647 
L 1091.4475 290.922353 
L 533.4475 290.922353 
z
" style="fill: #ffffff"/>
   </g>
   <g id="matplotlib.axis_5">
    <g id="xtick_11">
     <g id="line2d_47">
      <path d="M 589.2475 388.757647 
L 589.2475 290.922353 
" clip-path="url(#pec62c5d8b7)" style="fill: none; stroke: #b0b0b0; stroke-width: 0.8; stroke-linecap: square"/>
     </g>
     <g id="line2d_48">
      <g>
       <use xlink:href="#mf7f3c87ea8" x="589.2475" y="388.757647" style="stroke: #000000; stroke-width: 0.8"/>
      </g>
     </g>
     <g id="text_13">
      <!-- 1.6 -->
      <g transform="translate(569.368594 414.753741) scale(0.25 -0.25)">
       <defs>
        <path id="DejaVuSans-36" d="M 2113 2584 
Q 1688 2584 1439 2293 
Q 1191 2003 1191 1497 
Q 1191 994 1439 701 
Q 1688 409 2113 409 
Q 2538 409 2786 701 
Q 3034 994 3034 1497 
Q 3034 2003 2786 2293 
Q 2538 2584 2113 2584 
z
M 3366 4563 
L 3366 3988 
Q 3128 4100 2886 4159 
Q 2644 4219 2406 4219 
Q 1781 4219 1451 3797 
Q 1122 3375 1075 2522 
Q 1259 2794 1537 2939 
Q 1816 3084 2150 3084 
Q 2853 3084 3261 2657 
Q 3669 2231 3669 1497 
Q 3669 778 3244 343 
Q 2819 -91 2113 -91 
Q 1303 -91 875 529 
Q 447 1150 447 2328 
Q 447 3434 972 4092 
Q 1497 4750 2381 4750 
Q 2619 4750 2861 4703 
Q 3103 4656 3366 4563 
z
" transform="scale(0.015625)"/>
       </defs>
       <use xlink:href="#DejaVuSans-31"/>
       <use xlink:href="#DejaVuSans-2e" x="63.623047"/>
       <use xlink:href="#DejaVuSans-36" x="95.410156"/>
      </g>
     </g>
    </g>
    <g id="xtick_12">
     <g id="line2d_49">
      <path d="M 700.8475 388.757647 
L 700.8475 290.922353 
" clip-path="url(#pec62c5d8b7)" style="fill: none; stroke: #b0b0b0; stroke-width: 0.8; stroke-linecap: square"/>
     </g>
     <g id="line2d_50">
      <g>
       <use xlink:href="#mf7f3c87ea8" x="700.8475" y="388.757647" style="stroke: #000000; stroke-width: 0.8"/>
      </g>
     </g>
     <g id="text_14">
      <!-- 1.8 -->
      <g transform="translate(680.968594 414.753741) scale(0.25 -0.25)">
       <defs>
        <path id="DejaVuSans-38" d="M 2034 2216 
Q 1584 2216 1326 1975 
Q 1069 1734 1069 1313 
Q 1069 891 1326 650 
Q 1584 409 2034 409 
Q 2484 409 2743 651 
Q 3003 894 3003 1313 
Q 3003 1734 2745 1975 
Q 2488 2216 2034 2216 
z
M 1403 2484 
Q 997 2584 770 2862 
Q 544 3141 544 3541 
Q 544 4100 942 4425 
Q 1341 4750 2034 4750 
Q 2731 4750 3128 4425 
Q 3525 4100 3525 3541 
Q 3525 3141 3298 2862 
Q 3072 2584 2669 2484 
Q 3125 2378 3379 2068 
Q 3634 1759 3634 1313 
Q 3634 634 3220 271 
Q 2806 -91 2034 -91 
Q 1263 -91 848 271 
Q 434 634 434 1313 
Q 434 1759 690 2068 
Q 947 2378 1403 2484 
z
M 1172 3481 
Q 1172 3119 1398 2916 
Q 1625 2713 2034 2713 
Q 2441 2713 2670 2916 
Q 2900 3119 2900 3481 
Q 2900 3844 2670 4047 
Q 2441 4250 2034 4250 
Q 1625 4250 1398 4047 
Q 1172 3844 1172 3481 
z
" transform="scale(0.015625)"/>
       </defs>
       <use xlink:href="#DejaVuSans-31"/>
       <use xlink:href="#DejaVuSans-2e" x="63.623047"/>
       <use xlink:href="#DejaVuSans-38" x="95.410156"/>
      </g>
     </g>
    </g>
    <g id="xtick_13">
     <g id="line2d_51">
      <path d="M 812.4475 388.757647 
L 812.4475 290.922353 
" clip-path="url(#pec62c5d8b7)" style="fill: none; stroke: #b0b0b0; stroke-width: 0.8; stroke-linecap: square"/>
     </g>
     <g id="line2d_52">
      <g>
       <use xlink:href="#mf7f3c87ea8" x="812.4475" y="388.757647" style="stroke: #000000; stroke-width: 0.8"/>
      </g>
     </g>
     <g id="text_15">
      <!-- 2.0 -->
      <g transform="translate(792.568594 414.753741) scale(0.25 -0.25)">
       <use xlink:href="#DejaVuSans-32"/>
       <use xlink:href="#DejaVuSans-2e" x="63.623047"/>
       <use xlink:href="#DejaVuSans-30" x="95.410156"/>
      </g>
     </g>
    </g>
    <g id="xtick_14">
     <g id="line2d_53">
      <path d="M 924.0475 388.757647 
L 924.0475 290.922353 
" clip-path="url(#pec62c5d8b7)" style="fill: none; stroke: #b0b0b0; stroke-width: 0.8; stroke-linecap: square"/>
     </g>
     <g id="line2d_54">
      <g>
       <use xlink:href="#mf7f3c87ea8" x="924.0475" y="388.757647" style="stroke: #000000; stroke-width: 0.8"/>
      </g>
     </g>
     <g id="text_16">
      <!-- 2.2 -->
      <g transform="translate(904.168594 414.753741) scale(0.25 -0.25)">
       <use xlink:href="#DejaVuSans-32"/>
       <use xlink:href="#DejaVuSans-2e" x="63.623047"/>
       <use xlink:href="#DejaVuSans-32" x="95.410156"/>
      </g>
     </g>
    </g>
    <g id="xtick_15">
     <g id="line2d_55">
      <path d="M 1035.6475 388.757647 
L 1035.6475 290.922353 
" clip-path="url(#pec62c5d8b7)" style="fill: none; stroke: #b0b0b0; stroke-width: 0.8; stroke-linecap: square"/>
     </g>
     <g id="line2d_56">
      <g>
       <use xlink:href="#mf7f3c87ea8" x="1035.6475" y="388.757647" style="stroke: #000000; stroke-width: 0.8"/>
      </g>
     </g>
     <g id="text_17">
      <!-- 2.4 -->
      <g transform="translate(1015.768594 414.753741) scale(0.25 -0.25)">
       <defs>
        <path id="DejaVuSans-34" d="M 2419 4116 
L 825 1625 
L 2419 1625 
L 2419 4116 
z
M 2253 4666 
L 3047 4666 
L 3047 1625 
L 3713 1625 
L 3713 1100 
L 3047 1100 
L 3047 0 
L 2419 0 
L 2419 1100 
L 313 1100 
L 313 1709 
L 2253 4666 
z
" transform="scale(0.015625)"/>
       </defs>
       <use xlink:href="#DejaVuSans-32"/>
       <use xlink:href="#DejaVuSans-2e" x="63.623047"/>
       <use xlink:href="#DejaVuSans-34" x="95.410156"/>
      </g>
     </g>
    </g>
    <g id="text_18">
     <!-- Time (s) -->
     <g transform="translate(761.625234 442.949053) scale(0.25 -0.25)">
      <defs>
       <path id="DejaVuSans-54" d="M -19 4666 
L 3928 4666 
L 3928 4134 
L 2272 4134 
L 2272 0 
L 1638 0 
L 1638 4134 
L -19 4134 
L -19 4666 
z
" transform="scale(0.015625)"/>
       <path id="DejaVuSans-28" d="M 1984 4856 
Q 1566 4138 1362 3434 
Q 1159 2731 1159 2009 
Q 1159 1288 1364 580 
Q 1569 -128 1984 -844 
L 1484 -844 
Q 1016 -109 783 600 
Q 550 1309 550 2009 
Q 550 2706 781 3412 
Q 1013 4119 1484 4856 
L 1984 4856 
z
" transform="scale(0.015625)"/>
       <path id="DejaVuSans-29" d="M 513 4856 
L 1013 4856 
Q 1481 4119 1714 3412 
Q 1947 2706 1947 2009 
Q 1947 1309 1714 600 
Q 1481 -109 1013 -844 
L 513 -844 
Q 928 -128 1133 580 
Q 1338 1288 1338 2009 
Q 1338 2731 1133 3434 
Q 928 4138 513 4856 
z
" transform="scale(0.015625)"/>
      </defs>
      <use xlink:href="#DejaVuSans-54"/>
      <use xlink:href="#DejaVuSans-69" x="57.958984"/>
      <use xlink:href="#DejaVuSans-6d" x="85.742188"/>
      <use xlink:href="#DejaVuSans-65" x="183.154297"/>
      <use xlink:href="#DejaVuSans-20" x="244.677734"/>
      <use xlink:href="#DejaVuSans-28" x="276.464844"/>
      <use xlink:href="#DejaVuSans-73" x="315.478516"/>
      <use xlink:href="#DejaVuSans-29" x="367.578125"/>
     </g>
    </g>
   </g>
   <g id="matplotlib.axis_6">
    <g id="ytick_5">
     <g id="line2d_57">
      <path d="M 533.4475 372.38663 
L 1091.4475 372.38663 
" clip-path="url(#pec62c5d8b7)" style="fill: none; stroke: #b0b0b0; stroke-width: 0.8; stroke-linecap: square"/>
     </g>
     <g id="line2d_58">
      <g>
       <use xlink:href="#mcd72558d6d" x="533.4475" y="372.38663" style="stroke: #000000; stroke-width: 0.8"/>
      </g>
     </g>
     <g id="text_19">
      <!-- 0.00 -->
      <g transform="translate(470.783437 381.884677) scale(0.25 -0.25)">
       <use xlink:href="#DejaVuSans-30"/>
       <use xlink:href="#DejaVuSans-2e" x="63.623047"/>
       <use xlink:href="#DejaVuSans-30" x="95.410156"/>
       <use xlink:href="#DejaVuSans-30" x="159.033203"/>
      </g>
     </g>
    </g>
    <g id="ytick_6">
     <g id="line2d_59">
      <path d="M 533.4475 301.556383 
L 1091.4475 301.556383 
" clip-path="url(#pec62c5d8b7)" style="fill: none; stroke: #b0b0b0; stroke-width: 0.8; stroke-linecap: square"/>
     </g>
     <g id="line2d_60">
      <g>
       <use xlink:href="#mcd72558d6d" x="533.4475" y="301.556383" style="stroke: #000000; stroke-width: 0.8"/>
      </g>
     </g>
     <g id="text_20">
      <!-- 0.25 -->
      <g transform="translate(470.783437 311.05443) scale(0.25 -0.25)">
       <use xlink:href="#DejaVuSans-30"/>
       <use xlink:href="#DejaVuSans-2e" x="63.623047"/>
       <use xlink:href="#DejaVuSans-32" x="95.410156"/>
       <use xlink:href="#DejaVuSans-35" x="159.033203"/>
      </g>
     </g>
    </g>
    <g id="text_21">
     <!-- Right finger -->
     <g transform="translate(461.584219 413.289219) rotate(-90) scale(0.25 -0.25)">
      <defs>
       <path id="DejaVuSans-52" d="M 2841 2188 
Q 3044 2119 3236 1894 
Q 3428 1669 3622 1275 
L 4263 0 
L 3584 0 
L 2988 1197 
Q 2756 1666 2539 1819 
Q 2322 1972 1947 1972 
L 1259 1972 
L 1259 0 
L 628 0 
L 628 4666 
L 2053 4666 
Q 2853 4666 3247 4331 
Q 3641 3997 3641 3322 
Q 3641 2881 3436 2590 
Q 3231 2300 2841 2188 
z
M 1259 4147 
L 1259 2491 
L 2053 2491 
Q 2509 2491 2742 2702 
Q 2975 2913 2975 3322 
Q 2975 3731 2742 3939 
Q 2509 4147 2053 4147 
L 1259 4147 
z
" transform="scale(0.015625)"/>
       <path id="DejaVuSans-67" d="M 2906 1791 
Q 2906 2416 2648 2759 
Q 2391 3103 1925 3103 
Q 1463 3103 1205 2759 
Q 947 2416 947 1791 
Q 947 1169 1205 825 
Q 1463 481 1925 481 
Q 2391 481 2648 825 
Q 2906 1169 2906 1791 
z
M 3481 434 
Q 3481 -459 3084 -895 
Q 2688 -1331 1869 -1331 
Q 1566 -1331 1297 -1286 
Q 1028 -1241 775 -1147 
L 775 -588 
Q 1028 -725 1275 -790 
Q 1522 -856 1778 -856 
Q 2344 -856 2625 -561 
Q 2906 -266 2906 331 
L 2906 616 
Q 2728 306 2450 153 
Q 2172 0 1784 0 
Q 1141 0 747 490 
Q 353 981 353 1791 
Q 353 2603 747 3093 
Q 1141 3584 1784 3584 
Q 2172 3584 2450 3431 
Q 2728 3278 2906 2969 
L 2906 3500 
L 3481 3500 
L 3481 434 
z
" transform="scale(0.015625)"/>
       <path id="DejaVuSans-66" d="M 2375 4863 
L 2375 4384 
L 1825 4384 
Q 1516 4384 1395 4259 
Q 1275 4134 1275 3809 
L 1275 3500 
L 2222 3500 
L 2222 3053 
L 1275 3053 
L 1275 0 
L 697 0 
L 697 3053 
L 147 3053 
L 147 3500 
L 697 3500 
L 697 3744 
Q 697 4328 969 4595 
Q 1241 4863 1831 4863 
L 2375 4863 
z
" transform="scale(0.015625)"/>
      </defs>
      <use xlink:href="#DejaVuSans-52"/>
      <use xlink:href="#DejaVuSans-69" x="69.482422"/>
      <use xlink:href="#DejaVuSans-67" x="97.265625"/>
      <use xlink:href="#DejaVuSans-68" x="160.742188"/>
      <use xlink:href="#DejaVuSans-74" x="224.121094"/>
      <use xlink:href="#DejaVuSans-20" x="263.330078"/>
      <use xlink:href="#DejaVuSans-66" x="295.117188"/>
      <use xlink:href="#DejaVuSans-69" x="330.322266"/>
      <use xlink:href="#DejaVuSans-6e" x="358.105469"/>
      <use xlink:href="#DejaVuSans-67" x="421.484375"/>
      <use xlink:href="#DejaVuSans-65" x="484.960938"/>
      <use xlink:href="#DejaVuSans-72" x="546.484375"/>
     </g>
    </g>
   </g>
   <g id="line2d_61">
    <path d="M 533.098663 372.38663 
L 1091.796337 372.38663 
L 1091.796337 372.38663 
" clip-path="url(#pec62c5d8b7)" style="fill: none; stroke-dasharray: 41.6,10.4,6.5,10.4; stroke-dashoffset: 0; stroke: #000000; stroke-width: 6.5"/>
   </g>
   <g id="line2d_62">
    <path d="M 533.098663 330.505303 
L 813.284709 330.571132 
L 814.400988 330.933664 
L 816.075407 331.793637 
L 817.749826 332.901816 
L 819.982384 334.665654 
L 822.773081 337.229881 
L 825.563779 340.123515 
L 828.912616 343.938427 
L 832.819593 348.749491 
L 837.842849 355.314849 
L 853.470756 376.050493 
L 856.819593 379.994169 
L 859.052151 382.250868 
L 860.16843 383.168025 
L 861.284709 383.860553 
L 862.400988 384.249119 
L 863.517267 384.277433 
L 864.633547 383.953076 
L 865.749826 383.344509 
L 867.424244 382.082837 
L 869.656802 380.067248 
L 876.912616 372.978609 
L 881.935872 368.284976 
L 886.400988 364.397866 
L 890.866105 360.809421 
L 895.331221 357.526741 
L 899.796337 354.538959 
L 904.261453 351.84159 
L 908.72657 349.420378 
L 913.191686 347.260175 
L 917.656802 345.344914 
L 922.121919 343.657918 
L 927.145174 342.012061 
L 932.16843 340.61012 
L 937.191686 339.428914 
L 942.773081 338.347379 
L 948.912616 337.403066 
L 955.610291 336.622246 
L 962.866105 336.01833 
L 970.680058 335.59151 
L 980.16843 335.307009 
L 991.88936 335.196696 
L 1008.075407 335.28778 
L 1085.098663 335.995656 
L 1091.796337 336.010091 
L 1091.796337 336.010091 
" clip-path="url(#pec62c5d8b7)" style="fill: none; stroke: #1f77b4; stroke-width: 6.5; stroke-linecap: square"/>
   </g>
   <g id="line2d_63">
    <path d="M 533.098663 330.505303 
L 813.284709 330.569328 
L 814.400988 330.924628 
L 816.075407 331.770185 
L 817.749826 332.86335 
L 819.982384 334.605158 
L 822.214942 336.610084 
L 825.00564 339.422831 
L 828.354477 343.16312 
L 832.261453 347.910673 
L 837.284709 354.422763 
L 854.587035 377.253418 
L 857.377733 380.441634 
L 859.052151 382.103304 
L 860.72657 383.416895 
L 861.842849 383.988981 
L 862.959128 384.232967 
L 864.075407 384.116315 
L 865.191686 383.673504 
L 866.307965 382.98311 
L 867.982384 381.654156 
L 870.773081 379.068224 
L 881.935872 368.379325 
L 886.400988 364.494022 
L 890.866105 360.905042 
L 895.331221 357.61798 
L 899.796337 354.627983 
L 904.261453 351.92526 
L 908.72657 349.495816 
L 913.191686 347.324351 
L 917.656802 345.393707 
L 922.121919 343.68641 
L 927.145174 342.011161 
L 932.16843 340.572223 
L 937.749826 339.221806 
L 943.331221 338.103086 
L 949.470756 337.105507 
L 956.16843 336.256433 
L 963.424244 335.572202 
L 971.238198 335.0578 
L 980.16843 334.690153 
L 990.773081 334.477167 
L 1004.72657 334.438051 
L 1025.377733 334.632068 
L 1089.563779 335.345966 
L 1091.796337 335.360154 
L 1091.796337 335.360154 
" clip-path="url(#pec62c5d8b7)" style="fill: none; stroke: #ff7f0e; stroke-width: 6.5; stroke-linecap: square"/>
   </g>
   <g id="line2d_64">
    <path d="M 533.098663 333.562385 
L 815.517267 335.023308 
L 818.866105 334.607957 
L 821.098663 334.550239 
L 823.88936 334.731151 
L 826.680058 335.139434 
L 830.028895 335.84659 
L 833.935872 336.897245 
L 840.633547 339.008987 
L 851.238198 342.359927 
L 857.377733 344.045141 
L 862.400988 345.21624 
L 866.866105 346.053856 
L 871.331221 346.688603 
L 878.587035 347.414771 
L 887.517267 348.016204 
L 903.703314 348.766738 
L 913.749826 349.059225 
L 919.331221 349.038553 
L 923.238198 348.803501 
L 927.145174 348.340355 
L 932.16843 347.519726 
L 939.424244 346.089603 
L 968.4475 340.118687 
L 977.377733 338.641205 
L 985.749826 337.484627 
L 994.121919 336.550564 
L 1003.052151 335.786874 
L 1012.540523 335.213566 
L 1022.587035 334.837245 
L 1033.749826 334.646992 
L 1046.587035 334.654819 
L 1062.773081 334.899243 
L 1087.331221 335.523306 
L 1091.796337 335.649402 
L 1091.796337 335.649402 
" clip-path="url(#pec62c5d8b7)" style="fill: none; stroke: #2ca02c; stroke-width: 6.5; stroke-linecap: square"/>
   </g>
   <g id="line2d_65">
    <path d="M 533.098663 330.505308 
L 813.284709 330.571135 
L 814.400988 330.933668 
L 816.075407 331.793643 
L 817.749826 332.901824 
L 819.982384 334.665663 
L 822.773081 337.229891 
L 825.563779 340.123856 
L 828.912616 343.939171 
L 832.819593 348.750622 
L 837.842849 355.31638 
L 853.470756 376.052688 
L 856.819593 379.996372 
L 859.052151 382.252954 
L 860.16843 383.169956 
L 861.284709 383.86221 
L 862.400988 384.250355 
L 863.517267 384.278138 
L 864.633547 383.953245 
L 865.749826 383.34423 
L 867.424244 382.08209 
L 869.656802 380.066159 
L 876.912616 372.977241 
L 881.935872 368.283643 
L 886.400988 364.396611 
L 890.866105 360.808261 
L 895.331221 357.525689 
L 899.796337 354.538017 
L 904.261453 351.840759 
L 908.72657 349.419655 
L 913.191686 347.259557 
L 917.656802 345.344396 
L 922.121919 343.657494 
L 927.145174 342.011736 
L 932.16843 340.609884 
L 937.191686 339.42876 
L 942.773081 338.347305 
L 948.912616 337.403067 
L 955.610291 336.622312 
L 962.866105 336.01845 
L 970.680058 335.591672 
L 980.16843 335.307201 
L 991.88936 335.196901 
L 1008.075407 335.287975 
L 1085.098663 335.995729 
L 1091.796337 336.010158 
L 1091.796337 336.010158 
" clip-path="url(#pec62c5d8b7)" style="fill: none; stroke: #d62728; stroke-width: 6.5; stroke-linecap: square"/>
   </g>
   <g id="line2d_66">
    <path d="M 533.098663 330.505308 
L 813.284709 330.569332 
L 814.400988 330.924631 
L 816.075407 331.770184 
L 817.749826 332.863346 
L 819.982384 334.605149 
L 822.214942 336.610077 
L 825.00564 339.422831 
L 828.354477 343.163129 
L 832.261453 347.910676 
L 837.284709 354.422757 
L 854.587035 377.253428 
L 857.377733 380.441643 
L 859.052151 382.103314 
L 860.72657 383.416908 
L 861.842849 383.988997 
L 862.959128 384.232986 
L 864.075407 384.116334 
L 865.191686 383.673523 
L 866.307965 382.983128 
L 867.982384 381.654172 
L 870.773081 379.068236 
L 881.935872 368.379329 
L 886.400988 364.494025 
L 890.866105 360.905043 
L 895.331221 357.61798 
L 899.796337 354.627982 
L 904.261453 351.925259 
L 908.72657 349.49585 
L 913.191686 347.324404 
L 917.656802 345.393744 
L 922.121919 343.68643 
L 927.145174 342.011165 
L 932.16843 340.572215 
L 937.749826 339.221789 
L 943.331221 338.103062 
L 949.470756 337.105479 
L 956.16843 336.256404 
L 963.424244 335.572173 
L 971.238198 335.057773 
L 980.16843 334.690131 
L 990.773081 334.477152 
L 1004.72657 334.438044 
L 1025.377733 334.632071 
L 1089.563779 335.34598 
L 1091.796337 335.360168 
L 1091.796337 335.360168 
" clip-path="url(#pec62c5d8b7)" style="fill: none; stroke: #9467bd; stroke-width: 6.5; stroke-linecap: square"/>
   </g>
   <g id="patch_15">
    <path d="M 533.4475 388.757647 
L 533.4475 290.922353 
" style="fill: none; stroke: #000000; stroke-width: 0.8; stroke-linejoin: miter; stroke-linecap: square"/>
   </g>
   <g id="patch_16">
    <path d="M 1091.4475 388.757647 
L 1091.4475 290.922353 
" style="fill: none; stroke: #000000; stroke-width: 0.8; stroke-linejoin: miter; stroke-linecap: square"/>
   </g>
   <g id="patch_17">
    <path d="M 533.4475 388.757647 
L 1091.4475 388.757647 
" style="fill: none; stroke: #000000; stroke-width: 0.8; stroke-linejoin: miter; stroke-linecap: square"/>
   </g>
   <g id="patch_18">
    <path d="M 533.4475 290.922353 
L 1091.4475 290.922353 
" style="fill: none; stroke: #000000; stroke-width: 0.8; stroke-linejoin: miter; stroke-linecap: square"/>
   </g>
  </g>
 </g>
 <defs>
  <clipPath id="p3637548e5b">
   <rect x="533.4475" y="56.117647" width="558" height="97.835294"/>
  </clipPath>
  <clipPath id="p33be50a95e">
   <rect x="533.4475" y="173.52" width="558" height="97.835294"/>
  </clipPath>
  <clipPath id="pec62c5d8b7">
   <rect x="533.4475" y="290.922353" width="558" height="97.835294"/>
  </clipPath>
 </defs>
</svg>
