<?xml version="1.0" encoding="utf-8" standalone="no"?>
<!DOCTYPE svg PUBLIC "-//W3C//DTD SVG 1.1//EN"
  "http://www.w3.org/Graphics/SVG/1.1/DTD/svg11.dtd">
<svg xmlns:xlink="http://www.w3.org/1999/xlink" width="1205.353125pt" height="836.905919pt" viewBox="0 0 1205.353125 836.905919" xmlns="http://www.w3.org/2000/svg" version="1.1">
 <metadata>
  <rdf:RDF xmlns:dc="http://purl.org/dc/elements/1.1/" xmlns:cc="http://creativecommons.org/ns#" xmlns:rdf="http://www.w3.org/1999/02/22-rdf-syntax-ns#">
   <cc:Work>
    <dc:type rdf:resource="http://purl.org/dc/dcmitype/StillImage"/>
    <dc:date>2024-01-24T00:43:03.275386</dc:date>
    <dc:format>image/svg+xml</dc:format>
    <dc:creator>
     <cc:Agent>
      <dc:title>Matplotlib v3.8.2, https://matplotlib.org/</dc:title>
     </cc:Agent>
    </dc:creator>
   </cc:Work>
  </rdf:RDF>
 </metadata>
 <defs>
  <style type="text/css">*{stroke-linejoin: round; stroke-linecap: butt}</style>
 </defs>
 <g id="figure_1">
  <g id="patch_1">
   <path d="M 0 836.905919 
L 1205.353125 836.905919 
L 1205.353125 0 
L 0 0 
z
" style="fill: #ffffff"/>
  </g>
  <g id="axes_1">
   <g id="patch_2">
    <path d="M 82.153125 300.705882 
L 1198.153125 300.705882 
L 1198.153125 105.035294 
L 82.153125 105.035294 
z
" style="fill: #ffffff"/>
   </g>
   <g id="matplotlib.axis_1">
    <g id="xtick_1">
     <g id="line2d_1">
      <path d="M 193.753125 300.705882 
L 193.753125 105.035294 
" clip-path="url(#p36cfb61ad8)" style="fill: none; stroke: #b0b0b0; stroke-width: 0.8; stroke-linecap: square"/>
     </g>
     <g id="line2d_2">
      <defs>
       <path id="me0ed4a4744" d="M 0 0 
L 0 3.5 
" style="stroke: #000000; stroke-width: 0.8"/>
      </defs>
      <g>
       <use xlink:href="#me0ed4a4744" x="193.753125" y="300.705882" style="stroke: #000000; stroke-width: 0.8"/>
      </g>
     </g>
    </g>
    <g id="xtick_2">
     <g id="line2d_3">
      <path d="M 416.953125 300.705882 
L 416.953125 105.035294 
" clip-path="url(#p36cfb61ad8)" style="fill: none; stroke: #b0b0b0; stroke-width: 0.8; stroke-linecap: square"/>
     </g>
     <g id="line2d_4">
      <g>
       <use xlink:href="#me0ed4a4744" x="416.953125" y="300.705882" style="stroke: #000000; stroke-width: 0.8"/>
      </g>
     </g>
    </g>
    <g id="xtick_3">
     <g id="line2d_5">
      <path d="M 640.153125 300.705882 
L 640.153125 105.035294 
" clip-path="url(#p36cfb61ad8)" style="fill: none; stroke: #b0b0b0; stroke-width: 0.8; stroke-linecap: square"/>
     </g>
     <g id="line2d_6">
      <g>
       <use xlink:href="#me0ed4a4744" x="640.153125" y="300.705882" style="stroke: #000000; stroke-width: 0.8"/>
      </g>
     </g>
    </g>
    <g id="xtick_4">
     <g id="line2d_7">
      <path d="M 863.353125 300.705882 
L 863.353125 105.035294 
" clip-path="url(#p36cfb61ad8)" style="fill: none; stroke: #b0b0b0; stroke-width: 0.8; stroke-linecap: square"/>
     </g>
     <g id="line2d_8">
      <g>
       <use xlink:href="#me0ed4a4744" x="863.353125" y="300.705882" style="stroke: #000000; stroke-width: 0.8"/>
      </g>
     </g>
    </g>
    <g id="xtick_5">
     <g id="line2d_9">
      <path d="M 1086.553125 300.705882 
L 1086.553125 105.035294 
" clip-path="url(#p36cfb61ad8)" style="fill: none; stroke: #b0b0b0; stroke-width: 0.8; stroke-linecap: square"/>
     </g>
     <g id="line2d_10">
      <g>
       <use xlink:href="#me0ed4a4744" x="1086.553125" y="300.705882" style="stroke: #000000; stroke-width: 0.8"/>
      </g>
     </g>
    </g>
   </g>
   <g id="matplotlib.axis_2">
    <g id="ytick_1">
     <g id="line2d_11">
      <path d="M 82.153125 255.779305 
L 1198.153125 255.779305 
" clip-path="url(#p36cfb61ad8)" style="fill: none; stroke: #b0b0b0; stroke-width: 0.8; stroke-linecap: square"/>
     </g>
     <g id="line2d_12">
      <defs>
       <path id="m89fcff167e" d="M 0 0 
L -3.5 0 
" style="stroke: #000000; stroke-width: 0.8"/>
      </defs>
      <g>
       <use xlink:href="#m89fcff167e" x="82.153125" y="255.779305" style="stroke: #000000; stroke-width: 0.8"/>
      </g>
     </g>
     <g id="text_1">
      <!-- 0.0 -->
      <g transform="translate(35.395313 265.277351) scale(0.25 -0.25)">
       <defs>
        <path id="DejaVuSans-30" d="M 2034 4250 
Q 1547 4250 1301 3770 
Q 1056 3291 1056 2328 
Q 1056 1369 1301 889 
Q 1547 409 2034 409 
Q 2525 409 2770 889 
Q 3016 1369 3016 2328 
Q 3016 3291 2770 3770 
Q 2525 4250 2034 4250 
z
M 2034 4750 
Q 2819 4750 3233 4129 
Q 3647 3509 3647 2328 
Q 3647 1150 3233 529 
Q 2819 -91 2034 -91 
Q 1250 -91 836 529 
Q 422 1150 422 2328 
Q 422 3509 836 4129 
Q 1250 4750 2034 4750 
z
" transform="scale(0.015625)"/>
        <path id="DejaVuSans-2e" d="M 684 794 
L 1344 794 
L 1344 0 
L 684 0 
L 684 794 
z
" transform="scale(0.015625)"/>
       </defs>
       <use xlink:href="#DejaVuSans-30"/>
       <use xlink:href="#DejaVuSans-2e" x="63.623047"/>
       <use xlink:href="#DejaVuSans-30" x="95.410156"/>
      </g>
     </g>
    </g>
    <g id="ytick_2">
     <g id="line2d_13">
      <path d="M 82.153125 140.37919 
L 1198.153125 140.37919 
" clip-path="url(#p36cfb61ad8)" style="fill: none; stroke: #b0b0b0; stroke-width: 0.8; stroke-linecap: square"/>
     </g>
     <g id="line2d_14">
      <g>
       <use xlink:href="#m89fcff167e" x="82.153125" y="140.37919" style="stroke: #000000; stroke-width: 0.8"/>
      </g>
     </g>
     <g id="text_2">
      <!-- 0.2 -->
      <g transform="translate(35.395313 149.877237) scale(0.25 -0.25)">
       <defs>
        <path id="DejaVuSans-32" d="M 1228 531 
L 3431 531 
L 3431 0 
L 469 0 
L 469 531 
Q 828 903 1448 1529 
Q 2069 2156 2228 2338 
Q 2531 2678 2651 2914 
Q 2772 3150 2772 3378 
Q 2772 3750 2511 3984 
Q 2250 4219 1831 4219 
Q 1534 4219 1204 4116 
Q 875 4013 500 3803 
L 500 4441 
Q 881 4594 1212 4672 
Q 1544 4750 1819 4750 
Q 2544 4750 2975 4387 
Q 3406 4025 3406 3419 
Q 3406 3131 3298 2873 
Q 3191 2616 2906 2266 
Q 2828 2175 2409 1742 
Q 1991 1309 1228 531 
z
" transform="scale(0.015625)"/>
       </defs>
       <use xlink:href="#DejaVuSans-30"/>
       <use xlink:href="#DejaVuSans-2e" x="63.623047"/>
       <use xlink:href="#DejaVuSans-32" x="95.410156"/>
      </g>
     </g>
    </g>
    <g id="text_3">
     <!-- Link 6 -->
     <g transform="translate(26.196094 240.394026) rotate(-90) scale(0.25 -0.25)">
      <defs>
       <path id="DejaVuSans-4c" d="M 628 4666 
L 1259 4666 
L 1259 531 
L 3531 531 
L 3531 0 
L 628 0 
L 628 4666 
z
" transform="scale(0.015625)"/>
       <path id="DejaVuSans-69" d="M 603 3500 
L 1178 3500 
L 1178 0 
L 603 0 
L 603 3500 
z
M 603 4863 
L 1178 4863 
L 1178 4134 
L 603 4134 
L 603 4863 
z
" transform="scale(0.015625)"/>
       <path id="DejaVuSans-6e" d="M 3513 2113 
L 3513 0 
L 2938 0 
L 2938 2094 
Q 2938 2591 2744 2837 
Q 2550 3084 2163 3084 
Q 1697 3084 1428 2787 
Q 1159 2491 1159 1978 
L 1159 0 
L 581 0 
L 581 3500 
L 1159 3500 
L 1159 2956 
Q 1366 3272 1645 3428 
Q 1925 3584 2291 3584 
Q 2894 3584 3203 3211 
Q 3513 2838 3513 2113 
z
" transform="scale(0.015625)"/>
       <path id="DejaVuSans-6b" d="M 581 4863 
L 1159 4863 
L 1159 1991 
L 2875 3500 
L 3609 3500 
L 1753 1863 
L 3688 0 
L 2938 0 
L 1159 1709 
L 1159 0 
L 581 0 
L 581 4863 
z
" transform="scale(0.015625)"/>
       <path id="DejaVuSans-20" transform="scale(0.015625)"/>
       <path id="DejaVuSans-36" d="M 2113 2584 
Q 1688 2584 1439 2293 
Q 1191 2003 1191 1497 
Q 1191 994 1439 701 
Q 1688 409 2113 409 
Q 2538 409 2786 701 
Q 3034 994 3034 1497 
Q 3034 2003 2786 2293 
Q 2538 2584 2113 2584 
z
M 3366 4563 
L 3366 3988 
Q 3128 4100 2886 4159 
Q 2644 4219 2406 4219 
Q 1781 4219 1451 3797 
Q 1122 3375 1075 2522 
Q 1259 2794 1537 2939 
Q 1816 3084 2150 3084 
Q 2853 3084 3261 2657 
Q 3669 2231 3669 1497 
Q 3669 778 3244 343 
Q 2819 -91 2113 -91 
Q 1303 -91 875 529 
Q 447 1150 447 2328 
Q 447 3434 972 4092 
Q 1497 4750 2381 4750 
Q 2619 4750 2861 4703 
Q 3103 4656 3366 4563 
z
" transform="scale(0.015625)"/>
      </defs>
      <use xlink:href="#DejaVuSans-4c"/>
      <use xlink:href="#DejaVuSans-69" x="55.712891"/>
      <use xlink:href="#DejaVuSans-6e" x="83.496094"/>
      <use xlink:href="#DejaVuSans-6b" x="146.875"/>
      <use xlink:href="#DejaVuSans-20" x="204.785156"/>
      <use xlink:href="#DejaVuSans-36" x="236.572266"/>
     </g>
    </g>
   </g>
   <g id="line2d_15">
    <path d="M 81.455451 255.779305 
L 1198.850799 255.779305 
L 1198.850799 255.779305 
" clip-path="url(#p36cfb61ad8)" style="fill: none; stroke-dasharray: 41.6,10.4,6.5,10.4; stroke-dashoffset: 0; stroke: #000000; stroke-width: 6.5"/>
   </g>
   <g id="line2d_16">
    <path d="M 81.455451 170.310793 
L 642.943823 170.523155 
L 646.29266 170.826272 
L 649.641497 171.405374 
L 652.990334 172.261413 
L 656.339172 173.384043 
L 659.688009 174.755772 
L 663.036846 176.357298 
L 666.385683 178.16977 
L 670.850799 180.880129 
L 675.315916 183.882989 
L 679.781032 187.139545 
L 685.362427 191.506632 
L 692.060102 197.080558 
L 699.874055 203.895415 
L 715.501962 217.923514 
L 726.664753 227.786077 
L 734.478706 234.414541 
L 741.176381 239.845308 
L 747.874055 244.994456 
L 753.455451 249.044418 
L 759.036846 252.858807 
L 764.618241 256.428514 
L 770.199637 259.742636 
L 775.781032 262.796234 
L 781.362427 265.589083 
L 786.943823 268.127921 
L 792.525218 270.414849 
L 798.106613 272.456808 
L 803.688009 274.265561 
L 809.269404 275.860198 
L 814.850799 277.251428 
L 821.548474 278.675314 
L 828.246148 279.860156 
L 834.943823 280.836133 
L 842.757776 281.749893 
L 851.688009 282.551175 
L 861.73452 283.213088 
L 874.01359 283.777596 
L 889.641497 284.257394 
L 917.548474 284.847011 
L 975.594985 286.082003 
L 1058.199637 287.901287 
L 1103.967078 288.653074 
L 1154.199637 289.251069 
L 1198.850799 289.636618 
L 1198.850799 289.636618 
" clip-path="url(#p36cfb61ad8)" style="fill: none; stroke: #1f77b4; stroke-width: 6.5; stroke-linecap: square"/>
   </g>
   <g id="line2d_17">
    <path d="M 81.455451 170.310793 
L 642.943823 170.526517 
L 646.29266 170.839779 
L 649.641497 171.430614 
L 652.990334 172.299181 
L 656.339172 173.433724 
L 659.688009 174.817078 
L 663.036846 176.430117 
L 666.385683 178.253206 
L 670.850799 180.976811 
L 675.315916 183.993621 
L 679.781032 187.261044 
L 685.362427 191.63626 
L 692.060102 197.215545 
L 699.874055 204.031248 
L 731.129869 231.646285 
L 738.943823 238.044576 
L 745.641497 243.230089 
L 752.339172 248.099046 
L 757.920567 251.892769 
L 763.501962 255.433194 
L 769.083358 258.711524 
L 774.664753 261.722718 
L 780.246148 264.46541 
L 785.827544 266.942513 
L 791.408939 269.159885 
L 796.990334 271.126167 
L 802.57173 272.852956 
L 808.153125 274.354846 
L 813.73452 275.6466 
L 820.432195 276.943154 
L 827.129869 277.99213 
L 833.827544 278.82445 
L 841.641497 279.560972 
L 850.57173 280.14903 
L 860.618241 280.559095 
L 871.781032 280.788198 
L 886.29266 280.855514 
L 908.618241 280.709599 
L 970.01359 280.228256 
L 1011.315916 280.190274 
L 1084.990334 280.393366 
L 1198.850799 280.692529 
L 1198.850799 280.692529 
" clip-path="url(#p36cfb61ad8)" style="fill: none; stroke: #ff7f0e; stroke-width: 6.5; stroke-linecap: square"/>
   </g>
   <g id="line2d_18">
    <path d="M 81.455451 144.055281 
L 210.943823 143.091738 
L 339.315916 142.358962 
L 467.688009 141.847958 
L 598.29266 141.551826 
L 645.176381 141.549198 
L 647.408939 141.795768 
L 649.641497 142.265175 
L 651.874055 142.928852 
L 655.222892 144.237346 
L 658.57173 145.856972 
L 661.920567 147.729327 
L 666.385683 150.54773 
L 670.850799 153.666442 
L 675.315916 157.031097 
L 680.897311 161.526435 
L 686.478706 166.295088 
L 694.29266 173.299013 
L 703.222892 181.631944 
L 728.897311 205.851203 
L 735.594985 211.805977 
L 741.176381 216.536067 
L 746.757776 220.987039 
L 752.339172 225.114419 
L 757.920567 228.923075 
L 762.385683 231.698108 
L 766.850799 234.185144 
L 771.315916 236.383881 
L 775.781032 238.242987 
L 780.246148 239.852904 
L 784.711265 241.208431 
L 789.176381 242.26295 
L 793.641497 243.051102 
L 798.106613 243.62548 
L 802.57173 243.95669 
L 808.153125 244.087151 
L 814.850799 244.010303 
L 821.548474 243.70207 
L 829.362427 243.086696 
L 840.525218 241.928118 
L 862.850799 239.468147 
L 875.129869 238.486692 
L 925.362427 234.878271 
L 951.036846 233.19547 
L 971.129869 232.087281 
L 990.106613 231.254926 
L 1009.083358 230.644904 
L 1029.176381 230.231567 
L 1050.385683 230.025448 
L 1073.827544 230.022211 
L 1102.850799 230.252885 
L 1146.385683 230.854619 
L 1198.850799 231.627718 
L 1198.850799 231.627718 
" clip-path="url(#p36cfb61ad8)" style="fill: none; stroke: #2ca02c; stroke-width: 6.5; stroke-linecap: square"/>
   </g>
   <g id="line2d_19">
    <path d="M 81.455451 170.310713 
L 642.943823 170.523087 
L 646.29266 170.826203 
L 649.641497 171.405303 
L 652.990334 172.261341 
L 656.339172 173.383971 
L 659.688009 174.7557 
L 663.036846 176.357327 
L 666.385683 178.170055 
L 670.850799 180.880649 
L 675.315916 183.883685 
L 679.781032 187.140376 
L 685.362427 191.507583 
L 692.060102 197.08159 
L 699.874055 203.896463 
L 715.501962 217.924356 
L 726.664753 227.786612 
L 734.478706 234.414796 
L 741.176381 239.84529 
L 747.874055 244.994142 
L 753.455451 249.043845 
L 759.036846 252.857966 
L 764.618241 256.427404 
L 770.199637 259.74126 
L 775.781032 262.794599 
L 781.362427 265.587199 
L 786.943823 268.125808 
L 792.525218 270.412526 
L 798.106613 272.454299 
L 803.688009 274.262891 
L 809.269404 275.857391 
L 814.850799 277.24851 
L 821.548474 278.672299 
L 828.246148 279.85708 
L 834.943823 280.833027 
L 842.757776 281.746792 
L 851.688009 282.548121 
L 861.73452 283.210131 
L 874.01359 283.774803 
L 889.641497 284.254852 
L 917.548474 284.844948 
L 975.594985 286.080754 
L 1058.199637 287.900633 
L 1103.967078 288.652572 
L 1154.199637 289.250661 
L 1198.850799 289.636262 
L 1198.850799 289.636262 
" clip-path="url(#p36cfb61ad8)" style="fill: none; stroke: #d62728; stroke-width: 6.5; stroke-linecap: square"/>
   </g>
   <g id="line2d_20">
    <path d="M 81.455451 170.310713 
L 642.943823 170.526449 
L 646.29266 170.839714 
L 649.641497 171.430553 
L 652.990334 172.299125 
L 656.339172 173.433671 
L 659.688009 174.817025 
L 663.036846 176.430062 
L 666.385683 178.253149 
L 670.850799 180.976752 
L 675.315916 183.993564 
L 679.781032 187.26099 
L 685.362427 191.636211 
L 692.060102 197.2155 
L 699.874055 204.031205 
L 731.129869 231.646255 
L 738.943823 238.044548 
L 745.641497 243.230063 
L 752.339172 248.099022 
L 757.920567 251.892746 
L 763.501962 255.433173 
L 769.083358 258.711504 
L 774.664753 261.722699 
L 780.246148 264.465392 
L 785.827544 266.942497 
L 791.408939 269.159869 
L 796.990334 271.126152 
L 802.57173 272.852943 
L 808.153125 274.354836 
L 813.73452 275.646592 
L 820.432195 276.943148 
L 827.129869 277.992124 
L 833.827544 278.824356 
L 841.641497 279.560794 
L 850.57173 280.148807 
L 860.618241 280.558833 
L 871.781032 280.7879 
L 886.29266 280.855178 
L 908.618241 280.709221 
L 970.01359 280.227845 
L 1011.315916 280.189878 
L 1084.990334 280.393017 
L 1198.850799 280.692241 
L 1198.850799 280.692241 
" clip-path="url(#p36cfb61ad8)" style="fill: none; stroke: #9467bd; stroke-width: 6.5; stroke-linecap: square"/>
   </g>
   <g id="patch_3">
    <path d="M 82.153125 300.705882 
L 82.153125 105.035294 
" style="fill: none; stroke: #000000; stroke-width: 0.8; stroke-linejoin: miter; stroke-linecap: square"/>
   </g>
   <g id="patch_4">
    <path d="M 1198.153125 300.705882 
L 1198.153125 105.035294 
" style="fill: none; stroke: #000000; stroke-width: 0.8; stroke-linejoin: miter; stroke-linecap: square"/>
   </g>
   <g id="patch_5">
    <path d="M 82.153125 300.705882 
L 1198.153125 300.705882 
" style="fill: none; stroke: #000000; stroke-width: 0.8; stroke-linejoin: miter; stroke-linecap: square"/>
   </g>
   <g id="patch_6">
    <path d="M 82.153125 105.035294 
L 1198.153125 105.035294 
" style="fill: none; stroke: #000000; stroke-width: 0.8; stroke-linejoin: miter; stroke-linecap: square"/>
   </g>
   <g id="legend_1">
    <g id="patch_7">
     <path d="M 42.72125 83.619375 
L 1195.553125 83.619375 
Q 1200.153125 83.619375 1200.153125 79.019375 
L 1200.153125 13.8 
Q 1200.153125 9.2 1195.553125 9.2 
L 42.72125 9.2 
Q 38.12125 9.2 38.12125 13.8 
L 38.12125 79.019375 
Q 38.12125 83.619375 42.72125 83.619375 
z
" style="fill: #4d4d4d; opacity: 0.5; stroke: #4d4d4d; stroke-linejoin: miter"/>
    </g>
    <g id="patch_8">
     <path d="M 40.72125 81.619375 
L 1193.553125 81.619375 
Q 1198.153125 81.619375 1198.153125 77.019375 
L 1198.153125 11.8 
Q 1198.153125 7.2 1193.553125 7.2 
L 40.72125 7.2 
Q 36.12125 7.2 36.12125 11.8 
L 36.12125 77.019375 
Q 36.12125 81.619375 40.72125 81.619375 
z
" style="fill: #ffffff; stroke: #cccccc; stroke-linejoin: miter"/>
    </g>
    <g id="line2d_21">
     <path d="M 45.32125 25.826406 
L 68.32125 25.826406 
L 91.32125 25.826406 
" style="fill: none; stroke: #ff7f0e; stroke-width: 6.5; stroke-linecap: square"/>
    </g>
    <g id="text_4">
     <!-- FDDP with collision cost = 10 -->
     <g transform="translate(109.72125 33.876406) scale(0.23 -0.23)">
      <defs>
       <path id="DejaVuSans-46" d="M 628 4666 
L 3309 4666 
L 3309 4134 
L 1259 4134 
L 1259 2759 
L 3109 2759 
L 3109 2228 
L 1259 2228 
L 1259 0 
L 628 0 
L 628 4666 
z
" transform="scale(0.015625)"/>
       <path id="DejaVuSans-44" d="M 1259 4147 
L 1259 519 
L 2022 519 
Q 2988 519 3436 956 
Q 3884 1394 3884 2338 
Q 3884 3275 3436 3711 
Q 2988 4147 2022 4147 
L 1259 4147 
z
M 628 4666 
L 1925 4666 
Q 3281 4666 3915 4102 
Q 4550 3538 4550 2338 
Q 4550 1131 3912 565 
Q 3275 0 1925 0 
L 628 0 
L 628 4666 
z
" transform="scale(0.015625)"/>
       <path id="DejaVuSans-50" d="M 1259 4147 
L 1259 2394 
L 2053 2394 
Q 2494 2394 2734 2622 
Q 2975 2850 2975 3272 
Q 2975 3691 2734 3919 
Q 2494 4147 2053 4147 
L 1259 4147 
z
M 628 4666 
L 2053 4666 
Q 2838 4666 3239 4311 
Q 3641 3956 3641 3272 
Q 3641 2581 3239 2228 
Q 2838 1875 2053 1875 
L 1259 1875 
L 1259 0 
L 628 0 
L 628 4666 
z
" transform="scale(0.015625)"/>
       <path id="DejaVuSans-77" d="M 269 3500 
L 844 3500 
L 1563 769 
L 2278 3500 
L 2956 3500 
L 3675 769 
L 4391 3500 
L 4966 3500 
L 4050 0 
L 3372 0 
L 2619 2869 
L 1863 0 
L 1184 0 
L 269 3500 
z
" transform="scale(0.015625)"/>
       <path id="DejaVuSans-74" d="M 1172 4494 
L 1172 3500 
L 2356 3500 
L 2356 3053 
L 1172 3053 
L 1172 1153 
Q 1172 725 1289 603 
Q 1406 481 1766 481 
L 2356 481 
L 2356 0 
L 1766 0 
Q 1100 0 847 248 
Q 594 497 594 1153 
L 594 3053 
L 172 3053 
L 172 3500 
L 594 3500 
L 594 4494 
L 1172 4494 
z
" transform="scale(0.015625)"/>
       <path id="DejaVuSans-68" d="M 3513 2113 
L 3513 0 
L 2938 0 
L 2938 2094 
Q 2938 2591 2744 2837 
Q 2550 3084 2163 3084 
Q 1697 3084 1428 2787 
Q 1159 2491 1159 1978 
L 1159 0 
L 581 0 
L 581 4863 
L 1159 4863 
L 1159 2956 
Q 1366 3272 1645 3428 
Q 1925 3584 2291 3584 
Q 2894 3584 3203 3211 
Q 3513 2838 3513 2113 
z
" transform="scale(0.015625)"/>
       <path id="DejaVuSans-63" d="M 3122 3366 
L 3122 2828 
Q 2878 2963 2633 3030 
Q 2388 3097 2138 3097 
Q 1578 3097 1268 2742 
Q 959 2388 959 1747 
Q 959 1106 1268 751 
Q 1578 397 2138 397 
Q 2388 397 2633 464 
Q 2878 531 3122 666 
L 3122 134 
Q 2881 22 2623 -34 
Q 2366 -91 2075 -91 
Q 1284 -91 818 406 
Q 353 903 353 1747 
Q 353 2603 823 3093 
Q 1294 3584 2113 3584 
Q 2378 3584 2631 3529 
Q 2884 3475 3122 3366 
z
" transform="scale(0.015625)"/>
       <path id="DejaVuSans-6f" d="M 1959 3097 
Q 1497 3097 1228 2736 
Q 959 2375 959 1747 
Q 959 1119 1226 758 
Q 1494 397 1959 397 
Q 2419 397 2687 759 
Q 2956 1122 2956 1747 
Q 2956 2369 2687 2733 
Q 2419 3097 1959 3097 
z
M 1959 3584 
Q 2709 3584 3137 3096 
Q 3566 2609 3566 1747 
Q 3566 888 3137 398 
Q 2709 -91 1959 -91 
Q 1206 -91 779 398 
Q 353 888 353 1747 
Q 353 2609 779 3096 
Q 1206 3584 1959 3584 
z
" transform="scale(0.015625)"/>
       <path id="DejaVuSans-6c" d="M 603 4863 
L 1178 4863 
L 1178 0 
L 603 0 
L 603 4863 
z
" transform="scale(0.015625)"/>
       <path id="DejaVuSans-73" d="M 2834 3397 
L 2834 2853 
Q 2591 2978 2328 3040 
Q 2066 3103 1784 3103 
Q 1356 3103 1142 2972 
Q 928 2841 928 2578 
Q 928 2378 1081 2264 
Q 1234 2150 1697 2047 
L 1894 2003 
Q 2506 1872 2764 1633 
Q 3022 1394 3022 966 
Q 3022 478 2636 193 
Q 2250 -91 1575 -91 
Q 1294 -91 989 -36 
Q 684 19 347 128 
L 347 722 
Q 666 556 975 473 
Q 1284 391 1588 391 
Q 1994 391 2212 530 
Q 2431 669 2431 922 
Q 2431 1156 2273 1281 
Q 2116 1406 1581 1522 
L 1381 1569 
Q 847 1681 609 1914 
Q 372 2147 372 2553 
Q 372 3047 722 3315 
Q 1072 3584 1716 3584 
Q 2034 3584 2315 3537 
Q 2597 3491 2834 3397 
z
" transform="scale(0.015625)"/>
       <path id="DejaVuSans-3d" d="M 678 2906 
L 4684 2906 
L 4684 2381 
L 678 2381 
L 678 2906 
z
M 678 1631 
L 4684 1631 
L 4684 1100 
L 678 1100 
L 678 1631 
z
" transform="scale(0.015625)"/>
       <path id="DejaVuSans-31" d="M 794 531 
L 1825 531 
L 1825 4091 
L 703 3866 
L 703 4441 
L 1819 4666 
L 2450 4666 
L 2450 531 
L 3481 531 
L 3481 0 
L 794 0 
L 794 531 
z
" transform="scale(0.015625)"/>
      </defs>
      <use xlink:href="#DejaVuSans-46"/>
      <use xlink:href="#DejaVuSans-44" x="57.519531"/>
      <use xlink:href="#DejaVuSans-44" x="134.521484"/>
      <use xlink:href="#DejaVuSans-50" x="211.523438"/>
      <use xlink:href="#DejaVuSans-20" x="271.826172"/>
      <use xlink:href="#DejaVuSans-77" x="303.613281"/>
      <use xlink:href="#DejaVuSans-69" x="385.400391"/>
      <use xlink:href="#DejaVuSans-74" x="413.183594"/>
      <use xlink:href="#DejaVuSans-68" x="452.392578"/>
      <use xlink:href="#DejaVuSans-20" x="515.771484"/>
      <use xlink:href="#DejaVuSans-63" x="547.558594"/>
      <use xlink:href="#DejaVuSans-6f" x="602.539062"/>
      <use xlink:href="#DejaVuSans-6c" x="663.720703"/>
      <use xlink:href="#DejaVuSans-6c" x="691.503906"/>
      <use xlink:href="#DejaVuSans-69" x="719.287109"/>
      <use xlink:href="#DejaVuSans-73" x="747.070312"/>
      <use xlink:href="#DejaVuSans-69" x="799.169922"/>
      <use xlink:href="#DejaVuSans-6f" x="826.953125"/>
      <use xlink:href="#DejaVuSans-6e" x="888.134766"/>
      <use xlink:href="#DejaVuSans-20" x="951.513672"/>
      <use xlink:href="#DejaVuSans-63" x="983.300781"/>
      <use xlink:href="#DejaVuSans-6f" x="1038.28125"/>
      <use xlink:href="#DejaVuSans-73" x="1099.462891"/>
      <use xlink:href="#DejaVuSans-74" x="1151.5625"/>
      <use xlink:href="#DejaVuSans-20" x="1190.771484"/>
      <use xlink:href="#DejaVuSans-3d" x="1222.558594"/>
      <use xlink:href="#DejaVuSans-20" x="1306.347656"/>
      <use xlink:href="#DejaVuSans-31" x="1338.134766"/>
      <use xlink:href="#DejaVuSans-30" x="1401.757812"/>
     </g>
    </g>
    <g id="line2d_22">
     <path d="M 45.32125 59.586094 
L 68.32125 59.586094 
L 91.32125 59.586094 
" style="fill: none; stroke: #1f77b4; stroke-width: 6.5; stroke-linecap: square"/>
    </g>
    <g id="text_5">
     <!-- FDDP with collision cost = 100 -->
     <g transform="translate(109.72125 67.636094) scale(0.23 -0.23)">
      <use xlink:href="#DejaVuSans-46"/>
      <use xlink:href="#DejaVuSans-44" x="57.519531"/>
      <use xlink:href="#DejaVuSans-44" x="134.521484"/>
      <use xlink:href="#DejaVuSans-50" x="211.523438"/>
      <use xlink:href="#DejaVuSans-20" x="271.826172"/>
      <use xlink:href="#DejaVuSans-77" x="303.613281"/>
      <use xlink:href="#DejaVuSans-69" x="385.400391"/>
      <use xlink:href="#DejaVuSans-74" x="413.183594"/>
      <use xlink:href="#DejaVuSans-68" x="452.392578"/>
      <use xlink:href="#DejaVuSans-20" x="515.771484"/>
      <use xlink:href="#DejaVuSans-63" x="547.558594"/>
      <use xlink:href="#DejaVuSans-6f" x="602.539062"/>
      <use xlink:href="#DejaVuSans-6c" x="663.720703"/>
      <use xlink:href="#DejaVuSans-6c" x="691.503906"/>
      <use xlink:href="#DejaVuSans-69" x="719.287109"/>
      <use xlink:href="#DejaVuSans-73" x="747.070312"/>
      <use xlink:href="#DejaVuSans-69" x="799.169922"/>
      <use xlink:href="#DejaVuSans-6f" x="826.953125"/>
      <use xlink:href="#DejaVuSans-6e" x="888.134766"/>
      <use xlink:href="#DejaVuSans-20" x="951.513672"/>
      <use xlink:href="#DejaVuSans-63" x="983.300781"/>
      <use xlink:href="#DejaVuSans-6f" x="1038.28125"/>
      <use xlink:href="#DejaVuSans-73" x="1099.462891"/>
      <use xlink:href="#DejaVuSans-74" x="1151.5625"/>
      <use xlink:href="#DejaVuSans-20" x="1190.771484"/>
      <use xlink:href="#DejaVuSans-3d" x="1222.558594"/>
      <use xlink:href="#DejaVuSans-20" x="1306.347656"/>
      <use xlink:href="#DejaVuSans-31" x="1338.134766"/>
      <use xlink:href="#DejaVuSans-30" x="1401.757812"/>
      <use xlink:href="#DejaVuSans-30" x="1465.380859"/>
     </g>
    </g>
    <g id="line2d_23">
     <path d="M 507.380469 25.826406 
L 530.380469 25.826406 
L 553.380469 25.826406 
" style="fill: none; stroke: #9467bd; stroke-width: 6.5; stroke-linecap: square"/>
    </g>
    <g id="text_6">
     <!-- USQP with collision cost = 10 -->
     <g transform="translate(571.780469 33.876406) scale(0.23 -0.23)">
      <defs>
       <path id="DejaVuSans-55" d="M 556 4666 
L 1191 4666 
L 1191 1831 
Q 1191 1081 1462 751 
Q 1734 422 2344 422 
Q 2950 422 3222 751 
Q 3494 1081 3494 1831 
L 3494 4666 
L 4128 4666 
L 4128 1753 
Q 4128 841 3676 375 
Q 3225 -91 2344 -91 
Q 1459 -91 1007 375 
Q 556 841 556 1753 
L 556 4666 
z
" transform="scale(0.015625)"/>
       <path id="DejaVuSans-53" d="M 3425 4513 
L 3425 3897 
Q 3066 4069 2747 4153 
Q 2428 4238 2131 4238 
Q 1616 4238 1336 4038 
Q 1056 3838 1056 3469 
Q 1056 3159 1242 3001 
Q 1428 2844 1947 2747 
L 2328 2669 
Q 3034 2534 3370 2195 
Q 3706 1856 3706 1288 
Q 3706 609 3251 259 
Q 2797 -91 1919 -91 
Q 1588 -91 1214 -16 
Q 841 59 441 206 
L 441 856 
Q 825 641 1194 531 
Q 1563 422 1919 422 
Q 2459 422 2753 634 
Q 3047 847 3047 1241 
Q 3047 1584 2836 1778 
Q 2625 1972 2144 2069 
L 1759 2144 
Q 1053 2284 737 2584 
Q 422 2884 422 3419 
Q 422 4038 858 4394 
Q 1294 4750 2059 4750 
Q 2388 4750 2728 4690 
Q 3069 4631 3425 4513 
z
" transform="scale(0.015625)"/>
       <path id="DejaVuSans-51" d="M 2522 4238 
Q 1834 4238 1429 3725 
Q 1025 3213 1025 2328 
Q 1025 1447 1429 934 
Q 1834 422 2522 422 
Q 3209 422 3611 934 
Q 4013 1447 4013 2328 
Q 4013 3213 3611 3725 
Q 3209 4238 2522 4238 
z
M 3406 84 
L 4238 -825 
L 3475 -825 
L 2784 -78 
Q 2681 -84 2626 -87 
Q 2572 -91 2522 -91 
Q 1538 -91 948 567 
Q 359 1225 359 2328 
Q 359 3434 948 4092 
Q 1538 4750 2522 4750 
Q 3503 4750 4090 4092 
Q 4678 3434 4678 2328 
Q 4678 1516 4351 937 
Q 4025 359 3406 84 
z
" transform="scale(0.015625)"/>
      </defs>
      <use xlink:href="#DejaVuSans-55"/>
      <use xlink:href="#DejaVuSans-53" x="73.193359"/>
      <use xlink:href="#DejaVuSans-51" x="136.669922"/>
      <use xlink:href="#DejaVuSans-50" x="215.380859"/>
      <use xlink:href="#DejaVuSans-20" x="275.683594"/>
      <use xlink:href="#DejaVuSans-77" x="307.470703"/>
      <use xlink:href="#DejaVuSans-69" x="389.257812"/>
      <use xlink:href="#DejaVuSans-74" x="417.041016"/>
      <use xlink:href="#DejaVuSans-68" x="456.25"/>
      <use xlink:href="#DejaVuSans-20" x="519.628906"/>
      <use xlink:href="#DejaVuSans-63" x="551.416016"/>
      <use xlink:href="#DejaVuSans-6f" x="606.396484"/>
      <use xlink:href="#DejaVuSans-6c" x="667.578125"/>
      <use xlink:href="#DejaVuSans-6c" x="695.361328"/>
      <use xlink:href="#DejaVuSans-69" x="723.144531"/>
      <use xlink:href="#DejaVuSans-73" x="750.927734"/>
      <use xlink:href="#DejaVuSans-69" x="803.027344"/>
      <use xlink:href="#DejaVuSans-6f" x="830.810547"/>
      <use xlink:href="#DejaVuSans-6e" x="891.992188"/>
      <use xlink:href="#DejaVuSans-20" x="955.371094"/>
      <use xlink:href="#DejaVuSans-63" x="987.158203"/>
      <use xlink:href="#DejaVuSans-6f" x="1042.138672"/>
      <use xlink:href="#DejaVuSans-73" x="1103.320312"/>
      <use xlink:href="#DejaVuSans-74" x="1155.419922"/>
      <use xlink:href="#DejaVuSans-20" x="1194.628906"/>
      <use xlink:href="#DejaVuSans-3d" x="1226.416016"/>
      <use xlink:href="#DejaVuSans-20" x="1310.205078"/>
      <use xlink:href="#DejaVuSans-31" x="1341.992188"/>
      <use xlink:href="#DejaVuSans-30" x="1405.615234"/>
     </g>
    </g>
    <g id="line2d_24">
     <path d="M 507.380469 59.586094 
L 530.380469 59.586094 
L 553.380469 59.586094 
" style="fill: none; stroke: #d62728; stroke-width: 6.5; stroke-linecap: square"/>
    </g>
    <g id="text_7">
     <!-- USQP with collision cost = 100 -->
     <g transform="translate(571.780469 67.636094) scale(0.23 -0.23)">
      <use xlink:href="#DejaVuSans-55"/>
      <use xlink:href="#DejaVuSans-53" x="73.193359"/>
      <use xlink:href="#DejaVuSans-51" x="136.669922"/>
      <use xlink:href="#DejaVuSans-50" x="215.380859"/>
      <use xlink:href="#DejaVuSans-20" x="275.683594"/>
      <use xlink:href="#DejaVuSans-77" x="307.470703"/>
      <use xlink:href="#DejaVuSans-69" x="389.257812"/>
      <use xlink:href="#DejaVuSans-74" x="417.041016"/>
      <use xlink:href="#DejaVuSans-68" x="456.25"/>
      <use xlink:href="#DejaVuSans-20" x="519.628906"/>
      <use xlink:href="#DejaVuSans-63" x="551.416016"/>
      <use xlink:href="#DejaVuSans-6f" x="606.396484"/>
      <use xlink:href="#DejaVuSans-6c" x="667.578125"/>
      <use xlink:href="#DejaVuSans-6c" x="695.361328"/>
      <use xlink:href="#DejaVuSans-69" x="723.144531"/>
      <use xlink:href="#DejaVuSans-73" x="750.927734"/>
      <use xlink:href="#DejaVuSans-69" x="803.027344"/>
      <use xlink:href="#DejaVuSans-6f" x="830.810547"/>
      <use xlink:href="#DejaVuSans-6e" x="891.992188"/>
      <use xlink:href="#DejaVuSans-20" x="955.371094"/>
      <use xlink:href="#DejaVuSans-63" x="987.158203"/>
      <use xlink:href="#DejaVuSans-6f" x="1042.138672"/>
      <use xlink:href="#DejaVuSans-73" x="1103.320312"/>
      <use xlink:href="#DejaVuSans-74" x="1155.419922"/>
      <use xlink:href="#DejaVuSans-20" x="1194.628906"/>
      <use xlink:href="#DejaVuSans-3d" x="1226.416016"/>
      <use xlink:href="#DejaVuSans-20" x="1310.205078"/>
      <use xlink:href="#DejaVuSans-31" x="1341.992188"/>
      <use xlink:href="#DejaVuSans-30" x="1405.615234"/>
      <use xlink:href="#DejaVuSans-30" x="1469.238281"/>
     </g>
    </g>
    <g id="line2d_25">
     <path d="M 970.330938 25.826406 
L 993.330938 25.826406 
L 1016.330938 25.826406 
" style="fill: none; stroke: #2ca02c; stroke-width: 6.5; stroke-linecap: square"/>
    </g>
    <g id="text_8">
     <!-- CSQP -->
     <g transform="translate(1034.730937 33.876406) scale(0.23 -0.23)">
      <defs>
       <path id="DejaVuSans-43" d="M 4122 4306 
L 4122 3641 
Q 3803 3938 3442 4084 
Q 3081 4231 2675 4231 
Q 1875 4231 1450 3742 
Q 1025 3253 1025 2328 
Q 1025 1406 1450 917 
Q 1875 428 2675 428 
Q 3081 428 3442 575 
Q 3803 722 4122 1019 
L 4122 359 
Q 3791 134 3420 21 
Q 3050 -91 2638 -91 
Q 1578 -91 968 557 
Q 359 1206 359 2328 
Q 359 3453 968 4101 
Q 1578 4750 2638 4750 
Q 3056 4750 3426 4639 
Q 3797 4528 4122 4306 
z
" transform="scale(0.015625)"/>
      </defs>
      <use xlink:href="#DejaVuSans-43"/>
      <use xlink:href="#DejaVuSans-53" x="69.824219"/>
      <use xlink:href="#DejaVuSans-51" x="133.300781"/>
      <use xlink:href="#DejaVuSans-50" x="212.011719"/>
     </g>
    </g>
    <g id="line2d_26">
     <path d="M 970.330938 59.586094 
L 993.330938 59.586094 
L 1016.330938 59.586094 
" style="fill: none; stroke-dasharray: 41.6,10.4,6.5,10.4; stroke-dashoffset: 0; stroke: #000000; stroke-width: 6.5"/>
    </g>
    <g id="text_9">
     <!-- Collision limit -->
     <g transform="translate(1034.730937 67.636094) scale(0.23 -0.23)">
      <defs>
       <path id="DejaVuSans-6d" d="M 3328 2828 
Q 3544 3216 3844 3400 
Q 4144 3584 4550 3584 
Q 5097 3584 5394 3201 
Q 5691 2819 5691 2113 
L 5691 0 
L 5113 0 
L 5113 2094 
Q 5113 2597 4934 2840 
Q 4756 3084 4391 3084 
Q 3944 3084 3684 2787 
Q 3425 2491 3425 1978 
L 3425 0 
L 2847 0 
L 2847 2094 
Q 2847 2600 2669 2842 
Q 2491 3084 2119 3084 
Q 1678 3084 1418 2786 
Q 1159 2488 1159 1978 
L 1159 0 
L 581 0 
L 581 3500 
L 1159 3500 
L 1159 2956 
Q 1356 3278 1631 3431 
Q 1906 3584 2284 3584 
Q 2666 3584 2933 3390 
Q 3200 3197 3328 2828 
z
" transform="scale(0.015625)"/>
      </defs>
      <use xlink:href="#DejaVuSans-43"/>
      <use xlink:href="#DejaVuSans-6f" x="69.824219"/>
      <use xlink:href="#DejaVuSans-6c" x="131.005859"/>
      <use xlink:href="#DejaVuSans-6c" x="158.789062"/>
      <use xlink:href="#DejaVuSans-69" x="186.572266"/>
      <use xlink:href="#DejaVuSans-73" x="214.355469"/>
      <use xlink:href="#DejaVuSans-69" x="266.455078"/>
      <use xlink:href="#DejaVuSans-6f" x="294.238281"/>
      <use xlink:href="#DejaVuSans-6e" x="355.419922"/>
      <use xlink:href="#DejaVuSans-20" x="418.798828"/>
      <use xlink:href="#DejaVuSans-6c" x="450.585938"/>
      <use xlink:href="#DejaVuSans-69" x="478.369141"/>
      <use xlink:href="#DejaVuSans-6d" x="506.152344"/>
      <use xlink:href="#DejaVuSans-69" x="603.564453"/>
      <use xlink:href="#DejaVuSans-74" x="631.347656"/>
     </g>
    </g>
   </g>
  </g>
  <g id="axes_2">
   <g id="patch_9">
    <path d="M 82.153125 535.510588 
L 1198.153125 535.510588 
L 1198.153125 339.84 
L 82.153125 339.84 
z
" style="fill: #ffffff"/>
   </g>
   <g id="matplotlib.axis_3">
    <g id="xtick_6">
     <g id="line2d_27">
      <path d="M 193.753125 535.510588 
L 193.753125 339.84 
" clip-path="url(#p9571bc0170)" style="fill: none; stroke: #b0b0b0; stroke-width: 0.8; stroke-linecap: square"/>
     </g>
     <g id="line2d_28">
      <g>
       <use xlink:href="#me0ed4a4744" x="193.753125" y="535.510588" style="stroke: #000000; stroke-width: 0.8"/>
      </g>
     </g>
    </g>
    <g id="xtick_7">
     <g id="line2d_29">
      <path d="M 416.953125 535.510588 
L 416.953125 339.84 
" clip-path="url(#p9571bc0170)" style="fill: none; stroke: #b0b0b0; stroke-width: 0.8; stroke-linecap: square"/>
     </g>
     <g id="line2d_30">
      <g>
       <use xlink:href="#me0ed4a4744" x="416.953125" y="535.510588" style="stroke: #000000; stroke-width: 0.8"/>
      </g>
     </g>
    </g>
    <g id="xtick_8">
     <g id="line2d_31">
      <path d="M 640.153125 535.510588 
L 640.153125 339.84 
" clip-path="url(#p9571bc0170)" style="fill: none; stroke: #b0b0b0; stroke-width: 0.8; stroke-linecap: square"/>
     </g>
     <g id="line2d_32">
      <g>
       <use xlink:href="#me0ed4a4744" x="640.153125" y="535.510588" style="stroke: #000000; stroke-width: 0.8"/>
      </g>
     </g>
    </g>
    <g id="xtick_9">
     <g id="line2d_33">
      <path d="M 863.353125 535.510588 
L 863.353125 339.84 
" clip-path="url(#p9571bc0170)" style="fill: none; stroke: #b0b0b0; stroke-width: 0.8; stroke-linecap: square"/>
     </g>
     <g id="line2d_34">
      <g>
       <use xlink:href="#me0ed4a4744" x="863.353125" y="535.510588" style="stroke: #000000; stroke-width: 0.8"/>
      </g>
     </g>
    </g>
    <g id="xtick_10">
     <g id="line2d_35">
      <path d="M 1086.553125 535.510588 
L 1086.553125 339.84 
" clip-path="url(#p9571bc0170)" style="fill: none; stroke: #b0b0b0; stroke-width: 0.8; stroke-linecap: square"/>
     </g>
     <g id="line2d_36">
      <g>
       <use xlink:href="#me0ed4a4744" x="1086.553125" y="535.510588" style="stroke: #000000; stroke-width: 0.8"/>
      </g>
     </g>
    </g>
   </g>
   <g id="matplotlib.axis_4">
    <g id="ytick_3">
     <g id="line2d_37">
      <path d="M 82.153125 496.975796 
L 1198.153125 496.975796 
" clip-path="url(#p9571bc0170)" style="fill: none; stroke: #b0b0b0; stroke-width: 0.8; stroke-linecap: square"/>
     </g>
     <g id="line2d_38">
      <g>
       <use xlink:href="#m89fcff167e" x="82.153125" y="496.975796" style="stroke: #000000; stroke-width: 0.8"/>
      </g>
     </g>
     <g id="text_10">
      <!-- 0.0 -->
      <g transform="translate(35.395313 506.473843) scale(0.25 -0.25)">
       <use xlink:href="#DejaVuSans-30"/>
       <use xlink:href="#DejaVuSans-2e" x="63.623047"/>
       <use xlink:href="#DejaVuSans-30" x="95.410156"/>
      </g>
     </g>
    </g>
    <g id="ytick_4">
     <g id="line2d_39">
      <path d="M 82.153125 385.297285 
L 1198.153125 385.297285 
" clip-path="url(#p9571bc0170)" style="fill: none; stroke: #b0b0b0; stroke-width: 0.8; stroke-linecap: square"/>
     </g>
     <g id="line2d_40">
      <g>
       <use xlink:href="#m89fcff167e" x="82.153125" y="385.297285" style="stroke: #000000; stroke-width: 0.8"/>
      </g>
     </g>
     <g id="text_11">
      <!-- 0.2 -->
      <g transform="translate(35.395313 394.795332) scale(0.25 -0.25)">
       <use xlink:href="#DejaVuSans-30"/>
       <use xlink:href="#DejaVuSans-2e" x="63.623047"/>
       <use xlink:href="#DejaVuSans-32" x="95.410156"/>
      </g>
     </g>
    </g>
    <g id="text_12">
     <!-- Link 7 -->
     <g transform="translate(26.196094 475.198732) rotate(-90) scale(0.25 -0.25)">
      <defs>
       <path id="DejaVuSans-37" d="M 525 4666 
L 3525 4666 
L 3525 4397 
L 1831 0 
L 1172 0 
L 2766 4134 
L 525 4134 
L 525 4666 
z
" transform="scale(0.015625)"/>
      </defs>
      <use xlink:href="#DejaVuSans-4c"/>
      <use xlink:href="#DejaVuSans-69" x="55.712891"/>
      <use xlink:href="#DejaVuSans-6e" x="83.496094"/>
      <use xlink:href="#DejaVuSans-6b" x="146.875"/>
      <use xlink:href="#DejaVuSans-20" x="204.785156"/>
      <use xlink:href="#DejaVuSans-37" x="236.572266"/>
     </g>
    </g>
   </g>
   <g id="line2d_41">
    <path d="M 81.455451 496.975796 
L 1198.850799 496.975796 
L 1198.850799 496.975796 
" clip-path="url(#p9571bc0170)" style="fill: none; stroke-dasharray: 41.6,10.4,6.5,10.4; stroke-dashoffset: 0; stroke: #000000; stroke-width: 6.5"/>
   </g>
   <g id="line2d_42">
    <path d="M 81.455451 456.117374 
L 641.827544 456.336348 
L 644.060102 456.701733 
L 646.29266 457.269765 
L 649.641497 458.424454 
L 652.990334 459.889512 
L 656.339172 461.627191 
L 659.688009 463.60556 
L 663.036846 465.800159 
L 667.501962 469.018063 
L 671.967078 472.514834 
L 677.548474 477.19317 
L 684.246148 483.131198 
L 707.688009 504.294819 
L 713.269404 508.902561 
L 717.73452 512.334951 
L 722.199637 515.489465 
L 726.664753 518.318439 
L 730.01359 520.200514 
L 733.362427 521.85921 
L 736.711265 523.281086 
L 740.060102 524.455695 
L 743.408939 525.37649 
L 746.757776 526.041218 
L 750.106613 526.451118 
L 753.455451 526.614777 
L 756.804288 526.543706 
L 760.153125 526.25394 
L 763.501962 525.764481 
L 767.967078 524.838416 
L 772.432195 523.644166 
L 776.897311 522.234059 
L 782.478706 520.237299 
L 789.176381 517.604072 
L 801.455451 512.471753 
L 815.967078 506.439901 
L 824.897311 502.946822 
L 833.827544 499.695727 
L 841.641497 497.075064 
L 849.455451 494.6748 
L 857.269404 492.497978 
L 865.083358 490.542345 
L 872.897311 488.801987 
L 880.711265 487.268048 
L 889.641497 485.754126 
L 898.57173 484.477485 
L 907.501962 483.417941 
L 917.548474 482.459438 
L 927.594985 481.719546 
L 938.757776 481.118819 
L 951.036846 480.684204 
L 964.432195 480.428675 
L 980.060102 480.351441 
L 999.036846 480.481947 
L 1025.827544 480.907657 
L 1128.525218 482.746331 
L 1172.060102 483.182773 
L 1198.850799 483.354463 
L 1198.850799 483.354463 
" clip-path="url(#p9571bc0170)" style="fill: none; stroke: #1f77b4; stroke-width: 6.5; stroke-linecap: square"/>
   </g>
   <g id="line2d_43">
    <path d="M 81.455451 456.117374 
L 641.827544 456.335927 
L 644.060102 456.699965 
L 646.29266 457.267168 
L 649.641497 458.421316 
L 652.990334 459.886025 
L 656.339172 461.623894 
L 659.688009 463.605378 
L 663.036846 465.804035 
L 667.501962 469.029309 
L 671.967078 472.536743 
L 677.548474 477.232562 
L 684.246148 483.187722 
L 707.688009 504.401564 
L 713.269404 509.009618 
L 717.73452 512.436454 
L 722.199637 515.579684 
L 726.664753 518.391898 
L 730.01359 520.257173 
L 733.362427 521.894863 
L 736.711265 523.291037 
L 740.060102 524.435166 
L 743.408939 525.320836 
L 746.757776 525.946251 
L 750.106613 526.314589 
L 753.455451 526.434193 
L 756.804288 526.317727 
L 760.153125 525.98176 
L 763.501962 525.445596 
L 767.967078 524.456057 
L 772.432195 523.20008 
L 776.897311 521.729052 
L 782.478706 519.659891 
L 790.29266 516.477114 
L 804.804288 510.217352 
L 817.083358 505.016527 
L 826.01359 501.449603 
L 834.943823 498.124734 
L 842.757776 495.435831 
L 850.57173 492.961213 
L 858.385683 490.701698 
L 866.199637 488.653948 
L 874.01359 486.81037 
L 882.943823 484.941754 
L 891.874055 483.310771 
L 900.804288 481.899831 
L 910.850799 480.551798 
L 920.897311 479.432468 
L 932.060102 478.426267 
L 943.222892 477.637928 
L 955.501962 476.985282 
L 968.897311 476.486569 
L 984.525218 476.129526 
L 1002.385683 475.945579 
L 1024.711265 475.946878 
L 1055.967078 476.193986 
L 1197.73452 477.587407 
L 1198.850799 477.593828 
L 1198.850799 477.593828 
" clip-path="url(#p9571bc0170)" style="fill: none; stroke: #ff7f0e; stroke-width: 6.5; stroke-linecap: square"/>
   </g>
   <g id="line2d_44">
    <path d="M 81.455451 432.062649 
L 260.060102 430.174209 
L 433.083358 428.565825 
L 602.757776 427.210484 
L 648.525218 426.959704 
L 652.990334 427.156079 
L 657.455451 427.582646 
L 661.920567 428.244261 
L 666.385683 429.126099 
L 670.850799 430.206749 
L 676.432195 431.81623 
L 682.01359 433.682245 
L 687.594985 435.765192 
L 694.29266 438.495395 
L 702.106613 441.925528 
L 712.153125 446.606939 
L 735.594985 457.649294 
L 743.408939 461.043099 
L 750.106613 463.709137 
L 755.688009 465.710022 
L 761.269404 467.499422 
L 766.850799 469.073839 
L 772.432195 470.417469 
L 778.01359 471.519563 
L 783.594985 472.401817 
L 789.176381 473.060499 
L 794.757776 473.504054 
L 801.455451 473.792349 
L 808.153125 473.827289 
L 815.967078 473.641574 
L 824.897311 473.205941 
L 836.060102 472.415495 
L 849.455451 471.240134 
L 858.385683 470.280265 
L 867.315916 469.095931 
L 879.594985 467.203302 
L 900.804288 463.653066 
L 925.362427 459.6016 
L 940.990334 457.245274 
L 955.501962 455.286579 
L 968.897311 453.703599 
L 982.29266 452.349041 
L 995.688009 451.224339 
L 1009.083358 450.323096 
L 1023.594985 449.583633 
L 1038.106613 449.069238 
L 1053.73452 448.73823 
L 1070.478706 448.603256 
L 1089.455451 448.674473 
L 1111.781032 448.989696 
L 1139.688009 449.617324 
L 1188.804288 450.992271 
L 1198.850799 451.279071 
L 1198.850799 451.279071 
" clip-path="url(#p9571bc0170)" style="fill: none; stroke: #2ca02c; stroke-width: 6.5; stroke-linecap: square"/>
   </g>
   <g id="line2d_45">
    <path d="M 81.455451 456.117311 
L 641.827544 456.336296 
L 644.060102 456.70168 
L 646.29266 457.269711 
L 649.641497 458.424397 
L 652.990334 459.889452 
L 656.339172 461.627129 
L 659.688009 463.605497 
L 663.036846 465.80016 
L 667.501962 469.018306 
L 671.967078 472.515274 
L 677.548474 477.193793 
L 684.246148 483.131927 
L 707.688009 504.294899 
L 713.269404 508.90225 
L 717.73452 512.334267 
L 722.199637 515.488358 
L 726.664753 518.316868 
L 730.01359 520.198574 
L 733.362427 521.856889 
L 736.711265 523.27838 
L 740.060102 524.452608 
L 743.408939 525.373035 
L 746.757776 526.037417 
L 750.106613 526.447 
L 753.455451 526.610377 
L 756.804288 526.539065 
L 760.153125 526.2491 
L 763.501962 525.759485 
L 767.967078 524.833277 
L 772.432195 523.638952 
L 776.897311 522.228828 
L 782.478706 520.232116 
L 789.176381 517.599019 
L 801.455451 512.467067 
L 815.967078 506.435753 
L 824.897311 502.943019 
L 833.827544 499.692264 
L 841.641497 497.071889 
L 849.455451 494.671902 
L 857.269404 492.495343 
L 865.083358 490.53996 
L 872.897311 488.799837 
L 880.711265 487.266119 
L 889.641497 485.752431 
L 898.57173 484.476005 
L 907.501962 483.416656 
L 917.548474 482.458349 
L 927.594985 481.718631 
L 938.757776 481.118072 
L 951.036846 480.683612 
L 964.432195 480.428222 
L 980.060102 480.351115 
L 999.036846 480.481733 
L 1025.827544 480.907541 
L 1128.525218 482.746282 
L 1172.060102 483.182712 
L 1198.850799 483.354395 
L 1198.850799 483.354395 
" clip-path="url(#p9571bc0170)" style="fill: none; stroke: #d62728; stroke-width: 6.5; stroke-linecap: square"/>
   </g>
   <g id="line2d_46">
    <path d="M 81.455451 456.117311 
L 641.827544 456.335874 
L 644.060102 456.699913 
L 646.29266 457.267117 
L 649.641497 458.421267 
L 652.990334 459.885977 
L 656.339172 461.623849 
L 659.688009 463.605334 
L 663.036846 465.80399 
L 667.501962 469.02926 
L 671.967078 472.536691 
L 677.548474 477.232511 
L 684.246148 483.187678 
L 707.688009 504.401527 
L 713.269404 509.009583 
L 717.73452 512.436422 
L 722.199637 515.579655 
L 726.664753 518.391874 
L 730.01359 520.257155 
L 733.362427 521.89485 
L 736.711265 523.291029 
L 740.060102 524.435161 
L 743.408939 525.320834 
L 746.757776 525.946252 
L 750.106613 526.314592 
L 753.455451 526.434198 
L 756.804288 526.317735 
L 760.153125 525.981769 
L 763.501962 525.445607 
L 767.967078 524.45607 
L 772.432195 523.200095 
L 776.897311 521.729067 
L 782.478706 519.659908 
L 790.29266 516.477133 
L 804.804288 510.21737 
L 817.083358 505.016545 
L 826.01359 501.449624 
L 834.943823 498.124764 
L 842.757776 495.435822 
L 850.57173 492.961161 
L 858.385683 490.701607 
L 866.199637 488.653823 
L 874.01359 486.810218 
L 882.943823 484.941576 
L 891.874055 483.310574 
L 900.804288 481.899619 
L 910.850799 480.551574 
L 920.897311 479.432237 
L 932.060102 478.426032 
L 943.222892 477.637693 
L 955.501962 476.98505 
L 968.897311 476.486343 
L 984.525218 476.129309 
L 1002.385683 475.945375 
L 1024.711265 475.94669 
L 1055.967078 476.193821 
L 1197.73452 477.587302 
L 1198.850799 477.593723 
L 1198.850799 477.593723 
" clip-path="url(#p9571bc0170)" style="fill: none; stroke: #9467bd; stroke-width: 6.5; stroke-linecap: square"/>
   </g>
   <g id="patch_10">
    <path d="M 82.153125 535.510588 
L 82.153125 339.84 
" style="fill: none; stroke: #000000; stroke-width: 0.8; stroke-linejoin: miter; stroke-linecap: square"/>
   </g>
   <g id="patch_11">
    <path d="M 1198.153125 535.510588 
L 1198.153125 339.84 
" style="fill: none; stroke: #000000; stroke-width: 0.8; stroke-linejoin: miter; stroke-linecap: square"/>
   </g>
   <g id="patch_12">
    <path d="M 82.153125 535.510588 
L 1198.153125 535.510588 
" style="fill: none; stroke: #000000; stroke-width: 0.8; stroke-linejoin: miter; stroke-linecap: square"/>
   </g>
   <g id="patch_13">
    <path d="M 82.153125 339.84 
L 1198.153125 339.84 
" style="fill: none; stroke: #000000; stroke-width: 0.8; stroke-linejoin: miter; stroke-linecap: square"/>
   </g>
  </g>
  <g id="axes_3">
   <g id="patch_14">
    <path d="M 82.153125 770.315294 
L 1198.153125 770.315294 
L 1198.153125 574.644706 
L 82.153125 574.644706 
z
" style="fill: #ffffff"/>
   </g>
   <g id="matplotlib.axis_5">
    <g id="xtick_11">
     <g id="line2d_47">
      <path d="M 193.753125 770.315294 
L 193.753125 574.644706 
" clip-path="url(#p8958cfd806)" style="fill: none; stroke: #b0b0b0; stroke-width: 0.8; stroke-linecap: square"/>
     </g>
     <g id="line2d_48">
      <g>
       <use xlink:href="#me0ed4a4744" x="193.753125" y="770.315294" style="stroke: #000000; stroke-width: 0.8"/>
      </g>
     </g>
     <g id="text_13">
      <!-- 1.6 -->
      <g transform="translate(173.874219 796.311388) scale(0.25 -0.25)">
       <use xlink:href="#DejaVuSans-31"/>
       <use xlink:href="#DejaVuSans-2e" x="63.623047"/>
       <use xlink:href="#DejaVuSans-36" x="95.410156"/>
      </g>
     </g>
    </g>
    <g id="xtick_12">
     <g id="line2d_49">
      <path d="M 416.953125 770.315294 
L 416.953125 574.644706 
" clip-path="url(#p8958cfd806)" style="fill: none; stroke: #b0b0b0; stroke-width: 0.8; stroke-linecap: square"/>
     </g>
     <g id="line2d_50">
      <g>
       <use xlink:href="#me0ed4a4744" x="416.953125" y="770.315294" style="stroke: #000000; stroke-width: 0.8"/>
      </g>
     </g>
     <g id="text_14">
      <!-- 1.8 -->
      <g transform="translate(397.074219 796.311388) scale(0.25 -0.25)">
       <defs>
        <path id="DejaVuSans-38" d="M 2034 2216 
Q 1584 2216 1326 1975 
Q 1069 1734 1069 1313 
Q 1069 891 1326 650 
Q 1584 409 2034 409 
Q 2484 409 2743 651 
Q 3003 894 3003 1313 
Q 3003 1734 2745 1975 
Q 2488 2216 2034 2216 
z
M 1403 2484 
Q 997 2584 770 2862 
Q 544 3141 544 3541 
Q 544 4100 942 4425 
Q 1341 4750 2034 4750 
Q 2731 4750 3128 4425 
Q 3525 4100 3525 3541 
Q 3525 3141 3298 2862 
Q 3072 2584 2669 2484 
Q 3125 2378 3379 2068 
Q 3634 1759 3634 1313 
Q 3634 634 3220 271 
Q 2806 -91 2034 -91 
Q 1263 -91 848 271 
Q 434 634 434 1313 
Q 434 1759 690 2068 
Q 947 2378 1403 2484 
z
M 1172 3481 
Q 1172 3119 1398 2916 
Q 1625 2713 2034 2713 
Q 2441 2713 2670 2916 
Q 2900 3119 2900 3481 
Q 2900 3844 2670 4047 
Q 2441 4250 2034 4250 
Q 1625 4250 1398 4047 
Q 1172 3844 1172 3481 
z
" transform="scale(0.015625)"/>
       </defs>
       <use xlink:href="#DejaVuSans-31"/>
       <use xlink:href="#DejaVuSans-2e" x="63.623047"/>
       <use xlink:href="#DejaVuSans-38" x="95.410156"/>
      </g>
     </g>
    </g>
    <g id="xtick_13">
     <g id="line2d_51">
      <path d="M 640.153125 770.315294 
L 640.153125 574.644706 
" clip-path="url(#p8958cfd806)" style="fill: none; stroke: #b0b0b0; stroke-width: 0.8; stroke-linecap: square"/>
     </g>
     <g id="line2d_52">
      <g>
       <use xlink:href="#me0ed4a4744" x="640.153125" y="770.315294" style="stroke: #000000; stroke-width: 0.8"/>
      </g>
     </g>
     <g id="text_15">
      <!-- 2.0 -->
      <g transform="translate(620.274219 796.311388) scale(0.25 -0.25)">
       <use xlink:href="#DejaVuSans-32"/>
       <use xlink:href="#DejaVuSans-2e" x="63.623047"/>
       <use xlink:href="#DejaVuSans-30" x="95.410156"/>
      </g>
     </g>
    </g>
    <g id="xtick_14">
     <g id="line2d_53">
      <path d="M 863.353125 770.315294 
L 863.353125 574.644706 
" clip-path="url(#p8958cfd806)" style="fill: none; stroke: #b0b0b0; stroke-width: 0.8; stroke-linecap: square"/>
     </g>
     <g id="line2d_54">
      <g>
       <use xlink:href="#me0ed4a4744" x="863.353125" y="770.315294" style="stroke: #000000; stroke-width: 0.8"/>
      </g>
     </g>
     <g id="text_16">
      <!-- 2.2 -->
      <g transform="translate(843.474219 796.311388) scale(0.25 -0.25)">
       <use xlink:href="#DejaVuSans-32"/>
       <use xlink:href="#DejaVuSans-2e" x="63.623047"/>
       <use xlink:href="#DejaVuSans-32" x="95.410156"/>
      </g>
     </g>
    </g>
    <g id="xtick_15">
     <g id="line2d_55">
      <path d="M 1086.553125 770.315294 
L 1086.553125 574.644706 
" clip-path="url(#p8958cfd806)" style="fill: none; stroke: #b0b0b0; stroke-width: 0.8; stroke-linecap: square"/>
     </g>
     <g id="line2d_56">
      <g>
       <use xlink:href="#me0ed4a4744" x="1086.553125" y="770.315294" style="stroke: #000000; stroke-width: 0.8"/>
      </g>
     </g>
     <g id="text_17">
      <!-- 2.4 -->
      <g transform="translate(1066.674219 796.311388) scale(0.25 -0.25)">
       <defs>
        <path id="DejaVuSans-34" d="M 2419 4116 
L 825 1625 
L 2419 1625 
L 2419 4116 
z
M 2253 4666 
L 3047 4666 
L 3047 1625 
L 3713 1625 
L 3713 1100 
L 3047 1100 
L 3047 0 
L 2419 0 
L 2419 1100 
L 313 1100 
L 313 1709 
L 2253 4666 
z
" transform="scale(0.015625)"/>
       </defs>
       <use xlink:href="#DejaVuSans-32"/>
       <use xlink:href="#DejaVuSans-2e" x="63.623047"/>
       <use xlink:href="#DejaVuSans-34" x="95.410156"/>
      </g>
     </g>
    </g>
    <g id="text_18">
     <!-- Time (s) -->
     <g transform="translate(589.330859 824.5067) scale(0.25 -0.25)">
      <defs>
       <path id="DejaVuSans-54" d="M -19 4666 
L 3928 4666 
L 3928 4134 
L 2272 4134 
L 2272 0 
L 1638 0 
L 1638 4134 
L -19 4134 
L -19 4666 
z
" transform="scale(0.015625)"/>
       <path id="DejaVuSans-65" d="M 3597 1894 
L 3597 1613 
L 953 1613 
Q 991 1019 1311 708 
Q 1631 397 2203 397 
Q 2534 397 2845 478 
Q 3156 559 3463 722 
L 3463 178 
Q 3153 47 2828 -22 
Q 2503 -91 2169 -91 
Q 1331 -91 842 396 
Q 353 884 353 1716 
Q 353 2575 817 3079 
Q 1281 3584 2069 3584 
Q 2775 3584 3186 3129 
Q 3597 2675 3597 1894 
z
M 3022 2063 
Q 3016 2534 2758 2815 
Q 2500 3097 2075 3097 
Q 1594 3097 1305 2825 
Q 1016 2553 972 2059 
L 3022 2063 
z
" transform="scale(0.015625)"/>
       <path id="DejaVuSans-28" d="M 1984 4856 
Q 1566 4138 1362 3434 
Q 1159 2731 1159 2009 
Q 1159 1288 1364 580 
Q 1569 -128 1984 -844 
L 1484 -844 
Q 1016 -109 783 600 
Q 550 1309 550 2009 
Q 550 2706 781 3412 
Q 1013 4119 1484 4856 
L 1984 4856 
z
" transform="scale(0.015625)"/>
       <path id="DejaVuSans-29" d="M 513 4856 
L 1013 4856 
Q 1481 4119 1714 3412 
Q 1947 2706 1947 2009 
Q 1947 1309 1714 600 
Q 1481 -109 1013 -844 
L 513 -844 
Q 928 -128 1133 580 
Q 1338 1288 1338 2009 
Q 1338 2731 1133 3434 
Q 928 4138 513 4856 
z
" transform="scale(0.015625)"/>
      </defs>
      <use xlink:href="#DejaVuSans-54"/>
      <use xlink:href="#DejaVuSans-69" x="57.958984"/>
      <use xlink:href="#DejaVuSans-6d" x="85.742188"/>
      <use xlink:href="#DejaVuSans-65" x="183.154297"/>
      <use xlink:href="#DejaVuSans-20" x="244.677734"/>
      <use xlink:href="#DejaVuSans-28" x="276.464844"/>
      <use xlink:href="#DejaVuSans-73" x="315.478516"/>
      <use xlink:href="#DejaVuSans-29" x="367.578125"/>
     </g>
    </g>
   </g>
   <g id="matplotlib.axis_6">
    <g id="ytick_5">
     <g id="line2d_57">
      <path d="M 82.153125 737.573259 
L 1198.153125 737.573259 
" clip-path="url(#p8958cfd806)" style="fill: none; stroke: #b0b0b0; stroke-width: 0.8; stroke-linecap: square"/>
     </g>
     <g id="line2d_58">
      <g>
       <use xlink:href="#m89fcff167e" x="82.153125" y="737.573259" style="stroke: #000000; stroke-width: 0.8"/>
      </g>
     </g>
     <g id="text_19">
      <!-- 0.0 -->
      <g transform="translate(35.395313 747.071306) scale(0.25 -0.25)">
       <use xlink:href="#DejaVuSans-30"/>
       <use xlink:href="#DejaVuSans-2e" x="63.623047"/>
       <use xlink:href="#DejaVuSans-30" x="95.410156"/>
      </g>
     </g>
    </g>
    <g id="ytick_6">
     <g id="line2d_59">
      <path d="M 82.153125 624.244865 
L 1198.153125 624.244865 
" clip-path="url(#p8958cfd806)" style="fill: none; stroke: #b0b0b0; stroke-width: 0.8; stroke-linecap: square"/>
     </g>
     <g id="line2d_60">
      <g>
       <use xlink:href="#m89fcff167e" x="82.153125" y="624.244865" style="stroke: #000000; stroke-width: 0.8"/>
      </g>
     </g>
     <g id="text_20">
      <!-- 0.2 -->
      <g transform="translate(35.395313 633.742912) scale(0.25 -0.25)">
       <use xlink:href="#DejaVuSans-30"/>
       <use xlink:href="#DejaVuSans-2e" x="63.623047"/>
       <use xlink:href="#DejaVuSans-32" x="95.410156"/>
      </g>
     </g>
    </g>
    <g id="text_21">
     <!-- Right finger -->
     <g transform="translate(26.196094 745.929219) rotate(-90) scale(0.25 -0.25)">
      <defs>
       <path id="DejaVuSans-52" d="M 2841 2188 
Q 3044 2119 3236 1894 
Q 3428 1669 3622 1275 
L 4263 0 
L 3584 0 
L 2988 1197 
Q 2756 1666 2539 1819 
Q 2322 1972 1947 1972 
L 1259 1972 
L 1259 0 
L 628 0 
L 628 4666 
L 2053 4666 
Q 2853 4666 3247 4331 
Q 3641 3997 3641 3322 
Q 3641 2881 3436 2590 
Q 3231 2300 2841 2188 
z
M 1259 4147 
L 1259 2491 
L 2053 2491 
Q 2509 2491 2742 2702 
Q 2975 2913 2975 3322 
Q 2975 3731 2742 3939 
Q 2509 4147 2053 4147 
L 1259 4147 
z
" transform="scale(0.015625)"/>
       <path id="DejaVuSans-67" d="M 2906 1791 
Q 2906 2416 2648 2759 
Q 2391 3103 1925 3103 
Q 1463 3103 1205 2759 
Q 947 2416 947 1791 
Q 947 1169 1205 825 
Q 1463 481 1925 481 
Q 2391 481 2648 825 
Q 2906 1169 2906 1791 
z
M 3481 434 
Q 3481 -459 3084 -895 
Q 2688 -1331 1869 -1331 
Q 1566 -1331 1297 -1286 
Q 1028 -1241 775 -1147 
L 775 -588 
Q 1028 -725 1275 -790 
Q 1522 -856 1778 -856 
Q 2344 -856 2625 -561 
Q 2906 -266 2906 331 
L 2906 616 
Q 2728 306 2450 153 
Q 2172 0 1784 0 
Q 1141 0 747 490 
Q 353 981 353 1791 
Q 353 2603 747 3093 
Q 1141 3584 1784 3584 
Q 2172 3584 2450 3431 
Q 2728 3278 2906 2969 
L 2906 3500 
L 3481 3500 
L 3481 434 
z
" transform="scale(0.015625)"/>
       <path id="DejaVuSans-66" d="M 2375 4863 
L 2375 4384 
L 1825 4384 
Q 1516 4384 1395 4259 
Q 1275 4134 1275 3809 
L 1275 3500 
L 2222 3500 
L 2222 3053 
L 1275 3053 
L 1275 0 
L 697 0 
L 697 3053 
L 147 3053 
L 147 3500 
L 697 3500 
L 697 3744 
Q 697 4328 969 4595 
Q 1241 4863 1831 4863 
L 2375 4863 
z
" transform="scale(0.015625)"/>
       <path id="DejaVuSans-72" d="M 2631 2963 
Q 2534 3019 2420 3045 
Q 2306 3072 2169 3072 
Q 1681 3072 1420 2755 
Q 1159 2438 1159 1844 
L 1159 0 
L 581 0 
L 581 3500 
L 1159 3500 
L 1159 2956 
Q 1341 3275 1631 3429 
Q 1922 3584 2338 3584 
Q 2397 3584 2469 3576 
Q 2541 3569 2628 3553 
L 2631 2963 
z
" transform="scale(0.015625)"/>
      </defs>
      <use xlink:href="#DejaVuSans-52"/>
      <use xlink:href="#DejaVuSans-69" x="69.482422"/>
      <use xlink:href="#DejaVuSans-67" x="97.265625"/>
      <use xlink:href="#DejaVuSans-68" x="160.742188"/>
      <use xlink:href="#DejaVuSans-74" x="224.121094"/>
      <use xlink:href="#DejaVuSans-20" x="263.330078"/>
      <use xlink:href="#DejaVuSans-66" x="295.117188"/>
      <use xlink:href="#DejaVuSans-69" x="330.322266"/>
      <use xlink:href="#DejaVuSans-6e" x="358.105469"/>
      <use xlink:href="#DejaVuSans-67" x="421.484375"/>
      <use xlink:href="#DejaVuSans-65" x="484.960938"/>
      <use xlink:href="#DejaVuSans-72" x="546.484375"/>
     </g>
    </g>
   </g>
   <g id="line2d_61">
    <path d="M 81.455451 737.573259 
L 1198.850799 737.573259 
L 1198.850799 737.573259 
" clip-path="url(#p8958cfd806)" style="fill: none; stroke-dasharray: 41.6,10.4,6.5,10.4; stroke-dashoffset: 0; stroke: #000000; stroke-width: 6.5"/>
   </g>
   <g id="line2d_62">
    <path d="M 81.455451 653.810607 
L 640.711265 653.795119 
L 641.827544 653.942263 
L 644.060102 654.667328 
L 646.29266 655.748377 
L 648.525218 657.078797 
L 651.874055 659.430154 
L 655.222892 662.131309 
L 658.57173 665.122804 
L 661.920567 668.369068 
L 666.385683 673.04703 
L 670.850799 678.061711 
L 676.432195 684.716321 
L 682.01359 691.724026 
L 689.827544 701.943011 
L 702.106613 718.46841 
L 714.385683 734.901416 
L 721.083358 743.511374 
L 725.548474 748.958877 
L 728.897311 752.788339 
L 732.246148 756.260419 
L 734.478706 758.265531 
L 736.711265 759.894653 
L 737.827544 760.521105 
L 738.943823 760.994911 
L 740.060102 761.298237 
L 741.176381 761.419218 
L 742.29266 761.354865 
L 743.408939 761.112062 
L 744.525218 760.706152 
L 746.757776 759.489019 
L 748.990334 757.875062 
L 752.339172 755.010228 
L 756.804288 750.787884 
L 775.781032 732.427814 
L 782.478706 726.388401 
L 789.176381 720.665113 
L 795.874055 715.282194 
L 801.455451 711.062712 
L 808.153125 706.303875 
L 813.73452 702.59252 
L 819.315916 699.109732 
L 824.897311 695.848263 
L 831.594985 692.21686 
L 838.29266 688.881359 
L 844.990334 685.828251 
L 851.688009 683.043811 
L 858.385683 680.513771 
L 865.083358 678.224044 
L 871.781032 676.160543 
L 878.478706 674.309139 
L 886.29266 672.399097 
L 894.106613 670.737509 
L 901.920567 669.302917 
L 909.73452 668.074487 
L 918.664753 666.897362 
L 927.594985 665.93502 
L 937.641497 665.076127 
L 948.804288 664.358942 
L 961.083358 663.808706 
L 974.478706 663.436105 
L 990.106613 663.229003 
L 1009.083358 663.207076 
L 1035.874055 663.424163 
L 1155.315916 664.673488 
L 1198.850799 664.820183 
L 1198.850799 664.820183 
" clip-path="url(#p8958cfd806)" style="fill: none; stroke: #1f77b4; stroke-width: 6.5; stroke-linecap: square"/>
   </g>
   <g id="line2d_63">
    <path d="M 81.455451 653.810607 
L 640.711265 653.795119 
L 641.827544 653.938656 
L 644.060102 654.649257 
L 646.29266 655.711647 
L 648.525218 657.021934 
L 651.874055 659.342218 
L 655.222892 662.010316 
L 658.57173 664.973507 
L 661.920567 668.195204 
L 666.385683 672.841843 
L 670.850799 677.831839 
L 676.432195 684.466478 
L 682.01359 691.451284 
L 689.827544 701.645527 
L 702.106613 718.15693 
L 714.385683 734.581476 
L 721.083358 743.189381 
L 725.548474 748.639423 
L 728.897311 752.474299 
L 732.246148 755.958667 
L 734.478706 757.978833 
L 736.711265 759.63379 
L 737.827544 760.279606 
L 738.943823 760.777962 
L 740.060102 761.110972 
L 741.176381 761.265934 
L 742.29266 761.238217 
L 743.408939 761.03263 
L 744.525218 760.662521 
L 745.641497 760.147007 
L 747.874055 758.766221 
L 750.106613 757.051191 
L 753.455451 754.108776 
L 759.036846 748.763227 
L 772.432195 735.747524 
L 779.129869 729.558649 
L 785.827544 723.676288 
L 792.525218 718.123591 
L 799.222892 712.910154 
L 804.804288 708.825015 
L 810.385683 704.972531 
L 815.967078 701.349405 
L 821.548474 697.949474 
L 828.246148 694.154635 
L 834.943823 690.658855 
L 841.641497 687.448702 
L 848.339172 684.509476 
L 855.036846 681.826445 
L 861.73452 679.384937 
L 868.432195 677.170402 
L 875.129869 675.168135 
L 882.943823 673.08205 
L 890.757776 671.243612 
L 898.57173 669.632365 
L 906.385683 668.227655 
L 915.315916 666.851529 
L 924.246148 665.695006 
L 934.29266 664.625945 
L 944.339172 663.771528 
L 955.501962 663.038127 
L 967.781032 662.452037 
L 981.176381 662.027681 
L 996.804288 661.754335 
L 1015.781032 661.657191 
L 1039.222892 661.768744 
L 1076.060102 662.196235 
L 1160.897311 663.22842 
L 1198.850799 663.520308 
L 1198.850799 663.520308 
" clip-path="url(#p8958cfd806)" style="fill: none; stroke: #ff7f0e; stroke-width: 6.5; stroke-linecap: square"/>
   </g>
   <g id="line2d_64">
    <path d="M 81.455451 659.92477 
L 640.711265 663.084416 
L 644.060102 663.097933 
L 654.106613 661.949158 
L 657.455451 661.900478 
L 660.804288 662.061745 
L 664.153125 662.391419 
L 668.618241 663.078868 
L 673.083358 663.976959 
L 678.664753 665.345586 
L 684.246148 666.927778 
L 694.29266 670.094478 
L 715.501962 676.857221 
L 724.432195 679.423351 
L 732.246148 681.447214 
L 740.060102 683.23248 
L 746.757776 684.526709 
L 753.455451 685.593887 
L 759.036846 686.305925 
L 769.083358 687.344104 
L 779.129869 688.146254 
L 794.757776 689.067096 
L 812.618241 689.915206 
L 834.943823 690.753275 
L 846.106613 690.954773 
L 852.804288 690.908828 
L 858.385683 690.665065 
L 863.967078 690.184565 
L 869.548474 689.480711 
L 877.362427 688.23628 
L 886.29266 686.569226 
L 898.57173 684.037164 
L 939.874055 675.337433 
L 953.269404 672.838585 
L 965.548474 670.774926 
L 977.827544 668.946954 
L 990.106613 667.360493 
L 1002.385683 666.012179 
L 1014.664753 664.892698 
L 1026.943823 663.988299 
L 1040.339172 663.227131 
L 1054.850799 662.640657 
L 1070.478706 662.250295 
L 1087.222892 662.065915 
L 1106.199637 662.092744 
L 1128.525218 662.366211 
L 1156.432195 662.953559 
L 1198.850799 664.098804 
L 1198.850799 664.098804 
" clip-path="url(#p8958cfd806)" style="fill: none; stroke: #2ca02c; stroke-width: 6.5; stroke-linecap: square"/>
   </g>
   <g id="line2d_65">
    <path d="M 81.455451 653.810615 
L 640.711265 653.795126 
L 641.827544 653.94227 
L 644.060102 654.667337 
L 646.29266 655.748387 
L 648.525218 657.07881 
L 651.874055 659.43017 
L 655.222892 662.131327 
L 658.57173 665.122824 
L 661.920567 668.369087 
L 666.385683 673.047712 
L 670.850799 678.062947 
L 676.432195 684.718156 
L 682.01359 691.726389 
L 689.827544 701.945993 
L 702.106613 718.472126 
L 714.385683 734.905619 
L 721.083358 743.515744 
L 725.548474 748.963302 
L 728.897311 752.792744 
L 732.246148 756.264686 
L 734.478706 758.269572 
L 736.711265 759.898276 
L 737.827544 760.52442 
L 738.943823 760.997841 
L 740.060102 761.30071 
L 741.176381 761.421176 
L 742.29266 761.356276 
L 743.408939 761.112923 
L 744.525218 760.706491 
L 746.757776 759.488459 
L 748.990334 757.87383 
L 752.339172 755.008333 
L 756.804288 750.78551 
L 775.781032 732.425108 
L 782.478706 726.385788 
L 789.176381 720.662625 
L 795.874055 715.27985 
L 801.455451 711.060498 
L 808.153125 706.301825 
L 813.73452 702.590608 
L 819.315916 699.107959 
L 824.897311 695.846628 
L 831.594985 692.215389 
L 838.29266 688.880046 
L 844.990334 685.827092 
L 851.688009 683.042799 
L 858.385683 680.5129 
L 865.083358 678.223307 
L 871.781032 676.159933 
L 878.478706 674.308648 
L 886.29266 672.398737 
L 894.106613 670.737267 
L 901.920567 669.302783 
L 909.73452 668.07445 
L 918.664753 666.897421 
L 927.594985 665.935161 
L 937.641497 665.076346 
L 948.804288 664.359229 
L 961.083358 663.809047 
L 974.478706 663.436486 
L 990.106613 663.229407 
L 1009.083358 663.207485 
L 1035.874055 663.424547 
L 1155.315916 664.67367 
L 1198.850799 664.820317 
L 1198.850799 664.820317 
" clip-path="url(#p8958cfd806)" style="fill: none; stroke: #d62728; stroke-width: 6.5; stroke-linecap: square"/>
   </g>
   <g id="line2d_66">
    <path d="M 81.455451 653.810615 
L 640.711265 653.795126 
L 641.827544 653.938664 
L 644.060102 654.649262 
L 646.29266 655.711648 
L 648.525218 657.021931 
L 651.874055 659.342208 
L 655.222892 662.010299 
L 658.57173 664.973491 
L 661.920567 668.195196 
L 666.385683 672.841848 
L 670.850799 677.831854 
L 676.432195 684.466491 
L 682.01359 691.451283 
L 689.827544 701.645514 
L 702.106613 718.156935 
L 714.385683 734.581491 
L 721.083358 743.1894 
L 725.548474 748.639443 
L 728.897311 752.474316 
L 732.246148 755.958685 
L 734.478706 757.978854 
L 736.711265 759.633816 
L 737.827544 760.279635 
L 738.943823 760.777994 
L 740.060102 761.111007 
L 741.176381 761.265971 
L 742.29266 761.238255 
L 743.408939 761.032669 
L 744.525218 760.66256 
L 745.641497 760.147045 
L 747.874055 758.766256 
L 750.106613 757.051223 
L 753.455451 754.108803 
L 759.036846 748.763248 
L 772.432195 735.747537 
L 779.129869 729.558658 
L 785.827544 723.676295 
L 792.525218 718.123596 
L 799.222892 712.910157 
L 804.804288 708.825015 
L 810.385683 704.97253 
L 815.967078 701.349402 
L 821.548474 697.949472 
L 828.246148 694.154634 
L 834.943823 690.658953 
L 841.641497 687.448807 
L 848.339172 684.509558 
L 855.036846 681.826501 
L 861.73452 679.38497 
L 868.432195 677.170414 
L 875.129869 675.168129 
L 882.943823 673.082028 
L 890.757776 671.243577 
L 898.57173 669.63232 
L 906.385683 668.227603 
L 915.315916 666.851472 
L 924.246148 665.694947 
L 934.29266 664.625885 
L 944.339172 663.771471 
L 955.501962 663.038073 
L 967.781032 662.451989 
L 981.176381 662.027641 
L 996.804288 661.754304 
L 1015.781032 661.657171 
L 1039.222892 661.768738 
L 1076.060102 662.196244 
L 1160.897311 663.228446 
L 1198.850799 663.520336 
L 1198.850799 663.520336 
" clip-path="url(#p8958cfd806)" style="fill: none; stroke: #9467bd; stroke-width: 6.5; stroke-linecap: square"/>
   </g>
   <g id="patch_15">
    <path d="M 82.153125 770.315294 
L 82.153125 574.644706 
" style="fill: none; stroke: #000000; stroke-width: 0.8; stroke-linejoin: miter; stroke-linecap: square"/>
   </g>
   <g id="patch_16">
    <path d="M 1198.153125 770.315294 
L 1198.153125 574.644706 
" style="fill: none; stroke: #000000; stroke-width: 0.8; stroke-linejoin: miter; stroke-linecap: square"/>
   </g>
   <g id="patch_17">
    <path d="M 82.153125 770.315294 
L 1198.153125 770.315294 
" style="fill: none; stroke: #000000; stroke-width: 0.8; stroke-linejoin: miter; stroke-linecap: square"/>
   </g>
   <g id="patch_18">
    <path d="M 82.153125 574.644706 
L 1198.153125 574.644706 
" style="fill: none; stroke: #000000; stroke-width: 0.8; stroke-linejoin: miter; stroke-linecap: square"/>
   </g>
  </g>
 </g>
 <defs>
  <clipPath id="p36cfb61ad8">
   <rect x="82.153125" y="105.035294" width="1116" height="195.670588"/>
  </clipPath>
  <clipPath id="p9571bc0170">
   <rect x="82.153125" y="339.84" width="1116" height="195.670588"/>
  </clipPath>
  <clipPath id="p8958cfd806">
   <rect x="82.153125" y="574.644706" width="1116" height="195.670588"/>
  </clipPath>
 </defs>
</svg>
